<svg width="55" height="55" viewBox="0 0 55 55" fill="none" xmlns="http://www.w3.org/2000/svg">
  <path d="M45.1172 27.4941C45.1172 17.7909 37.2091 9.88281 27.4941 9.88281V27.5059H45.1055L45.1172 27.4941Z" fill="#EC2E69"/>
  <path d="M18.6943 27.5059C23.5608 27.5059 27.5059 23.5608 27.5059 18.6943C27.5059 13.8279 23.5608 9.88281 18.6943 9.88281C13.8279 9.88281 9.88281 13.8279 9.88281 18.6943C9.88281 23.5608 13.8279 27.5059 18.6943 27.5059Z" fill="#FFCE1F"/>
  <path d="M45.1172 27.4941H18.6943C13.8486 27.5176 9.91801 31.4482 9.91801 36.3057C9.91801 41.1632 13.8603 45.1172 18.7295 45.1172H45.1172V27.4941Z" fill="#8C46FF"/>
  <path d="M27.4941 27.4941C27.4941 37.2091 35.3905 45.1054 45.1055 45.1054V27.4824H27.4941V27.4941Z" fill="#530ECB"/>
</svg>
