<svg width="516" height="154" viewBox="0 0 516 154" fill="none" xmlns="http://www.w3.org/2000/svg">
  <path d="M146.792 65L154.888 34.2H165.008L173.104 65H167.12L165.448 58.224H154.448L152.776 65H146.792ZM155.812 52.856H164.084L160.344 37.852H159.552L155.812 52.856ZM185.767 65.616C184.036 65.616 182.408 65.1907 180.883 64.34C179.387 63.46 178.184 62.184 177.275 60.512C176.365 58.84 175.911 56.816 175.911 54.44V53.736C175.911 51.36 176.365 49.336 177.275 47.664C178.184 45.992 179.387 44.7307 180.883 43.88C182.379 43 184.007 42.56 185.767 42.56C187.087 42.56 188.187 42.7213 189.067 43.044C189.976 43.3373 190.709 43.7187 191.267 44.188C191.824 44.6573 192.249 45.156 192.543 45.684H193.335V34.2H198.879V65H193.423V62.36H192.631C192.132 63.1813 191.355 63.9293 190.299 64.604C189.272 65.2787 187.761 65.616 185.767 65.616ZM187.439 60.776C189.14 60.776 190.563 60.2333 191.707 59.148C192.851 58.0333 193.423 56.42 193.423 54.308V53.868C193.423 51.756 192.851 50.1573 191.707 49.072C190.592 47.9573 189.169 47.4 187.439 47.4C185.737 47.4 184.315 47.9573 183.171 49.072C182.027 50.1573 181.455 51.756 181.455 53.868V54.308C181.455 56.42 182.027 58.0333 183.171 59.148C184.315 60.2333 185.737 60.776 187.439 60.776ZM214.969 65.616C212.799 65.616 210.877 65.1613 209.205 64.252C207.563 63.3133 206.272 62.008 205.333 60.336C204.424 58.6347 203.969 56.64 203.969 54.352V53.824C203.969 51.536 204.424 49.556 205.333 47.884C206.243 46.1827 207.519 44.8773 209.161 43.968C210.804 43.0293 212.711 42.56 214.881 42.56C217.023 42.56 218.885 43.044 220.469 44.012C222.053 44.9507 223.285 46.2707 224.165 47.972C225.045 49.644 225.485 51.5947 225.485 53.824V55.716H209.601C209.66 57.212 210.217 58.4293 211.273 59.368C212.329 60.3067 213.62 60.776 215.145 60.776C216.7 60.776 217.844 60.4387 218.577 59.764C219.311 59.0893 219.868 58.3413 220.249 57.52L224.781 59.896C224.371 60.6587 223.769 61.4947 222.977 62.404C222.215 63.284 221.188 64.0467 219.897 64.692C218.607 65.308 216.964 65.616 214.969 65.616ZM209.645 51.58H219.853C219.736 50.3187 219.223 49.3067 218.313 48.544C217.433 47.7813 216.275 47.4 214.837 47.4C213.341 47.4 212.153 47.7813 211.273 48.544C210.393 49.3067 209.851 50.3187 209.645 51.58ZM230.42 65V34.2H235.964V65H230.42ZM242.107 65V43.176H247.651V65H242.107ZM244.879 40.624C243.882 40.624 243.031 40.3013 242.327 39.656C241.653 39.0107 241.315 38.16 241.315 37.104C241.315 36.048 241.653 35.1973 242.327 34.552C243.031 33.9067 243.882 33.584 244.879 33.584C245.906 33.584 246.757 33.9067 247.431 34.552C248.106 35.1973 248.443 36.048 248.443 37.104C248.443 38.16 248.106 39.0107 247.431 39.656C246.757 40.3013 245.906 40.624 244.879 40.624ZM264.179 65.616C262.008 65.616 260.058 65.176 258.327 64.296C256.596 63.416 255.232 62.14 254.235 60.468C253.238 58.796 252.739 56.7867 252.739 54.44V53.736C252.739 51.3893 253.238 49.38 254.235 47.708C255.232 46.036 256.596 44.76 258.327 43.88C260.058 43 262.008 42.56 264.179 42.56C266.35 42.56 268.3 43 270.031 43.88C271.762 44.76 273.126 46.036 274.123 47.708C275.12 49.38 275.619 51.3893 275.619 53.736V54.44C275.619 56.7867 275.12 58.796 274.123 60.468C273.126 62.14 271.762 63.416 270.031 64.296C268.3 65.176 266.35 65.616 264.179 65.616ZM264.179 60.688C265.88 60.688 267.288 60.1453 268.403 59.06C269.518 57.9453 270.075 56.3613 270.075 54.308V53.868C270.075 51.8147 269.518 50.2453 268.403 49.16C267.318 48.0453 265.91 47.488 264.179 47.488C262.478 47.488 261.07 48.0453 259.955 49.16C258.84 50.2453 258.283 51.8147 258.283 53.868V54.308C258.283 56.3613 258.84 57.9453 259.955 59.06C261.07 60.1453 262.478 60.688 264.179 60.688ZM280.736 65V43.176H286.192V45.552H286.984C287.366 44.8187 287.996 44.188 288.876 43.66C289.756 43.1027 290.915 42.824 292.352 42.824C293.907 42.824 295.154 43.132 296.092 43.748C297.031 44.3347 297.75 45.112 298.248 46.08H299.04C299.539 45.1413 300.243 44.364 301.152 43.748C302.062 43.132 303.352 42.824 305.024 42.824C306.374 42.824 307.591 43.1173 308.676 43.704C309.791 44.2613 310.671 45.1267 311.316 46.3C311.991 47.444 312.328 48.896 312.328 50.656V65H306.784V51.052C306.784 49.8493 306.476 48.9547 305.86 48.368C305.244 47.752 304.379 47.444 303.264 47.444C302.003 47.444 301.02 47.8547 300.316 48.676C299.642 49.468 299.304 50.612 299.304 52.108V65H293.76V51.052C293.76 49.8493 293.452 48.9547 292.836 48.368C292.22 47.752 291.355 47.444 290.24 47.444C288.979 47.444 287.996 47.8547 287.292 48.676C286.618 49.468 286.28 50.612 286.28 52.108V65H280.736ZM151.368 118L147.32 87.2H153.084L156.076 113.952H156.868L160.74 87.2H170.772L174.644 113.952H175.436L178.428 87.2H184.192L180.144 118H170.112L166.152 90.632H165.36L161.4 118H151.368ZM198.297 118.616C196.127 118.616 194.205 118.161 192.533 117.252C190.891 116.313 189.6 115.008 188.661 113.336C187.752 111.635 187.297 109.64 187.297 107.352V106.824C187.297 104.536 187.752 102.556 188.661 100.884C189.571 99.1827 190.847 97.8773 192.489 96.968C194.132 96.0293 196.039 95.56 198.209 95.56C200.351 95.56 202.213 96.044 203.797 97.012C205.381 97.9507 206.613 99.2707 207.493 100.972C208.373 102.644 208.813 104.595 208.813 106.824V108.716H192.929C192.988 110.212 193.545 111.429 194.601 112.368C195.657 113.307 196.948 113.776 198.473 113.776C200.028 113.776 201.172 113.439 201.905 112.764C202.639 112.089 203.196 111.341 203.577 110.52L208.109 112.896C207.699 113.659 207.097 114.495 206.305 115.404C205.543 116.284 204.516 117.047 203.225 117.692C201.935 118.308 200.292 118.616 198.297 118.616ZM192.973 104.58H203.181C203.064 103.319 202.551 102.307 201.641 101.544C200.761 100.781 199.603 100.4 198.165 100.4C196.669 100.4 195.481 100.781 194.601 101.544C193.721 102.307 193.179 103.319 192.973 104.58ZM226.86 118.616C224.895 118.616 223.384 118.279 222.328 117.604C221.272 116.929 220.495 116.181 219.996 115.36H219.204V118H213.748V87.2H219.292V98.684H220.084C220.407 98.156 220.832 97.6573 221.36 97.188C221.917 96.7187 222.636 96.3373 223.516 96.044C224.425 95.7213 225.54 95.56 226.86 95.56C228.62 95.56 230.248 96 231.744 96.88C233.24 97.7307 234.443 98.992 235.352 100.664C236.261 102.336 236.716 104.36 236.716 106.736V107.44C236.716 109.816 236.261 111.84 235.352 113.512C234.443 115.184 233.24 116.46 231.744 117.34C230.248 118.191 228.62 118.616 226.86 118.616ZM225.188 113.776C226.889 113.776 228.312 113.233 229.456 112.148C230.6 111.033 231.172 109.42 231.172 107.308V106.868C231.172 104.756 230.6 103.157 229.456 102.072C228.341 100.957 226.919 100.4 225.188 100.4C223.487 100.4 222.064 100.957 220.92 102.072C219.776 103.157 219.204 104.756 219.204 106.868V107.308C219.204 109.42 219.776 111.033 220.92 112.148C222.064 113.233 223.487 113.776 225.188 113.776ZM253.335 118.616C249.521 118.616 246.5 117.56 244.271 115.448C242.041 113.307 240.927 110.256 240.927 106.296V98.904C240.927 94.944 242.041 91.908 244.271 89.796C246.5 87.6547 249.521 86.584 253.335 86.584C257.119 86.584 260.037 87.6253 262.091 89.708C264.173 91.7613 265.215 94.592 265.215 98.2V98.464H259.495V98.024C259.495 96.2053 258.981 94.7093 257.955 93.536C256.957 92.3627 255.417 91.776 253.335 91.776C251.281 91.776 249.668 92.4067 248.495 93.668C247.321 94.9293 246.735 96.6453 246.735 98.816V106.384C246.735 108.525 247.321 110.241 248.495 111.532C249.668 112.793 251.281 113.424 253.335 113.424C255.417 113.424 256.957 112.837 257.955 111.664C258.981 110.461 259.495 108.965 259.495 107.176V106.384H265.215V107C265.215 110.608 264.173 113.453 262.091 115.536C260.037 117.589 257.119 118.616 253.335 118.616ZM280.507 118.616C278.336 118.616 276.386 118.176 274.655 117.296C272.924 116.416 271.56 115.14 270.563 113.468C269.566 111.796 269.067 109.787 269.067 107.44V106.736C269.067 104.389 269.566 102.38 270.563 100.708C271.56 99.036 272.924 97.76 274.655 96.88C276.386 96 278.336 95.56 280.507 95.56C282.678 95.56 284.628 96 286.359 96.88C288.09 97.76 289.454 99.036 290.451 100.708C291.448 102.38 291.947 104.389 291.947 106.736V107.44C291.947 109.787 291.448 111.796 290.451 113.468C289.454 115.14 288.09 116.416 286.359 117.296C284.628 118.176 282.678 118.616 280.507 118.616ZM280.507 113.688C282.208 113.688 283.616 113.145 284.731 112.06C285.846 110.945 286.403 109.361 286.403 107.308V106.868C286.403 104.815 285.846 103.245 284.731 102.16C283.646 101.045 282.238 100.488 280.507 100.488C278.806 100.488 277.398 101.045 276.283 102.16C275.168 103.245 274.611 104.815 274.611 106.868V107.308C274.611 109.361 275.168 110.945 276.283 112.06C277.398 113.145 278.806 113.688 280.507 113.688ZM297.064 118V96.176H302.52V98.552H303.312C303.694 97.8187 304.324 97.188 305.204 96.66C306.084 96.1027 307.243 95.824 308.68 95.824C310.235 95.824 311.482 96.132 312.42 96.748C313.359 97.3347 314.078 98.112 314.576 99.08H315.368C315.867 98.1413 316.571 97.364 317.48 96.748C318.39 96.132 319.68 95.824 321.352 95.824C322.702 95.824 323.919 96.1173 325.004 96.704C326.119 97.2613 326.999 98.1267 327.644 99.3C328.319 100.444 328.656 101.896 328.656 103.656V118H323.112V104.052C323.112 102.849 322.804 101.955 322.188 101.368C321.572 100.752 320.707 100.444 319.592 100.444C318.331 100.444 317.348 100.855 316.644 101.676C315.97 102.468 315.632 103.612 315.632 105.108V118H310.088V104.052C310.088 102.849 309.78 101.955 309.164 101.368C308.548 100.752 307.683 100.444 306.568 100.444C305.307 100.444 304.324 100.855 303.62 101.676C302.946 102.468 302.608 103.612 302.608 105.108V118H297.064ZM334.619 126.8V96.176H340.075V98.816H340.867C341.366 97.9653 342.143 97.2173 343.199 96.572C344.255 95.8973 345.766 95.56 347.731 95.56C349.491 95.56 351.119 96 352.615 96.88C354.111 97.7307 355.314 98.992 356.223 100.664C357.132 102.336 357.587 104.36 357.587 106.736V107.44C357.587 109.816 357.132 111.84 356.223 113.512C355.314 115.184 354.111 116.46 352.615 117.34C351.119 118.191 349.491 118.616 347.731 118.616C346.411 118.616 345.296 118.455 344.387 118.132C343.507 117.839 342.788 117.457 342.231 116.988C341.703 116.489 341.278 115.991 340.955 115.492H340.163V126.8H334.619ZM346.059 113.776C347.79 113.776 349.212 113.233 350.327 112.148C351.471 111.033 352.043 109.42 352.043 107.308V106.868C352.043 104.756 351.471 103.157 350.327 102.072C349.183 100.957 347.76 100.4 346.059 100.4C344.358 100.4 342.935 100.957 341.791 102.072C340.647 103.157 340.075 104.756 340.075 106.868V107.308C340.075 109.42 340.647 111.033 341.791 112.148C342.935 113.233 344.358 113.776 346.059 113.776ZM373.062 118.616C370.891 118.616 368.94 118.176 367.21 117.296C365.479 116.416 364.115 115.14 363.118 113.468C362.12 111.796 361.622 109.787 361.622 107.44V106.736C361.622 104.389 362.12 102.38 363.118 100.708C364.115 99.036 365.479 97.76 367.21 96.88C368.94 96 370.891 95.56 373.062 95.56C375.232 95.56 377.183 96 378.914 96.88C380.644 97.76 382.008 99.036 383.006 100.708C384.003 102.38 384.502 104.389 384.502 106.736V107.44C384.502 109.787 384.003 111.796 383.006 113.468C382.008 115.14 380.644 116.416 378.914 117.296C377.183 118.176 375.232 118.616 373.062 118.616ZM373.062 113.688C374.763 113.688 376.171 113.145 377.286 112.06C378.4 110.945 378.958 109.361 378.958 107.308V106.868C378.958 104.815 378.4 103.245 377.286 102.16C376.2 101.045 374.792 100.488 373.062 100.488C371.36 100.488 369.952 101.045 368.838 102.16C367.723 103.245 367.166 104.815 367.166 106.868V107.308C367.166 109.361 367.723 110.945 368.838 112.06C369.952 113.145 371.36 113.688 373.062 113.688ZM389.619 118V96.176H395.075V99.036H395.867C396.219 98.2733 396.879 97.5547 397.847 96.88C398.815 96.176 400.282 95.824 402.247 95.824C403.948 95.824 405.43 96.22 406.691 97.012C407.982 97.7747 408.979 98.8453 409.683 100.224C410.387 101.573 410.739 103.157 410.739 104.976V118H405.195V105.416C405.195 103.773 404.784 102.541 403.963 101.72C403.171 100.899 402.027 100.488 400.531 100.488C398.83 100.488 397.51 101.06 396.571 102.204C395.632 103.319 395.163 104.888 395.163 106.912V118H389.619ZM426.676 118.616C424.506 118.616 422.584 118.161 420.912 117.252C419.27 116.313 417.979 115.008 417.04 113.336C416.131 111.635 415.676 109.64 415.676 107.352V106.824C415.676 104.536 416.131 102.556 417.04 100.884C417.95 99.1827 419.226 97.8773 420.868 96.968C422.511 96.0293 424.418 95.56 426.588 95.56C428.73 95.56 430.592 96.044 432.176 97.012C433.76 97.9507 434.992 99.2707 435.872 100.972C436.752 102.644 437.192 104.595 437.192 106.824V108.716H421.308C421.367 110.212 421.924 111.429 422.98 112.368C424.036 113.307 425.327 113.776 426.852 113.776C428.407 113.776 429.551 113.439 430.284 112.764C431.018 112.089 431.575 111.341 431.956 110.52L436.488 112.896C436.078 113.659 435.476 114.495 434.684 115.404C433.922 116.284 432.895 117.047 431.604 117.692C430.314 118.308 428.671 118.616 426.676 118.616ZM421.352 104.58H431.56C431.443 103.319 430.93 102.307 430.02 101.544C429.14 100.781 427.982 100.4 426.544 100.4C425.048 100.4 423.86 100.781 422.98 101.544C422.1 102.307 421.558 103.319 421.352 104.58ZM442.127 118V96.176H447.583V99.036H448.375C448.727 98.2733 449.387 97.5547 450.355 96.88C451.323 96.176 452.79 95.824 454.755 95.824C456.456 95.824 457.938 96.22 459.199 97.012C460.49 97.7747 461.487 98.8453 462.191 100.224C462.895 101.573 463.247 103.157 463.247 104.976V118H457.703V105.416C457.703 103.773 457.292 102.541 456.471 101.72C455.679 100.899 454.535 100.488 453.039 100.488C451.338 100.488 450.018 101.06 449.079 102.204C448.14 103.319 447.671 104.888 447.671 106.912V118H442.127ZM476.999 118C475.561 118 474.388 117.56 473.479 116.68C472.599 115.771 472.159 114.568 472.159 113.072V100.752H466.703V96.176H472.159V89.4H477.703V96.176H483.687V100.752H477.703V112.104C477.703 112.984 478.113 113.424 478.935 113.424H483.159V118H476.999ZM497.769 118.616C494.924 118.616 492.592 118 490.773 116.768C488.954 115.536 487.854 113.776 487.473 111.488L492.577 110.168C492.782 111.195 493.12 112.001 493.589 112.588C494.088 113.175 494.689 113.6 495.393 113.864C496.126 114.099 496.918 114.216 497.769 114.216C499.06 114.216 500.013 113.996 500.629 113.556C501.245 113.087 501.553 112.515 501.553 111.84C501.553 111.165 501.26 110.652 500.673 110.3C500.086 109.919 499.148 109.611 497.857 109.376L496.625 109.156C495.1 108.863 493.706 108.467 492.445 107.968C491.184 107.44 490.172 106.721 489.409 105.812C488.646 104.903 488.265 103.729 488.265 102.292C488.265 100.121 489.057 98.464 490.641 97.32C492.225 96.1467 494.308 95.56 496.889 95.56C499.324 95.56 501.348 96.1027 502.961 97.188C504.574 98.2733 505.63 99.696 506.129 101.456L500.981 103.04C500.746 101.925 500.262 101.133 499.529 100.664C498.825 100.195 497.945 99.96 496.889 99.96C495.833 99.96 495.026 100.151 494.469 100.532C493.912 100.884 493.633 101.383 493.633 102.028C493.633 102.732 493.926 103.26 494.513 103.612C495.1 103.935 495.892 104.184 496.889 104.36L498.121 104.58C499.764 104.873 501.245 105.269 502.565 105.768C503.914 106.237 504.97 106.927 505.733 107.836C506.525 108.716 506.921 109.919 506.921 111.444C506.921 113.732 506.085 115.507 504.413 116.768C502.77 118 500.556 118.616 497.769 118.616Z" fill="#FF6897"/>
  <path d="M125.508 76.4837C125.508 49.491 103.509 27.4922 76.4837 27.4922V76.5163H125.475L125.508 76.4837Z" fill="#EC2E69"/>
  <path d="M52.0043 76.5163C65.5419 76.5163 76.5163 65.5419 76.5163 52.0043C76.5163 38.4666 65.5419 27.4922 52.0043 27.4922C38.4666 27.4922 27.4922 38.4666 27.4922 52.0043C27.4922 65.5419 38.4666 76.5163 52.0043 76.5163Z" fill="#FFCE1F"/>
  <path d="M125.508 76.4837H52.0043C38.5243 76.549 27.5901 87.4831 27.5901 100.996C27.5901 114.508 38.5569 125.508 52.1022 125.508H125.508V76.4837V76.4837Z" fill="#8C46FF"/>
  <path d="M76.4837 76.4837C76.4837 103.509 98.4499 125.475 125.475 125.475V76.451H76.4837V76.4837Z" fill="#530ECB"/>
</svg>
