<svg width="253" height="174" viewBox="0 0 253 174" fill="none" xmlns="http://www.w3.org/2000/svg">
<path d="M1.96209 168V159.104H5.87295C6.7809 159.104 7.49726 159.308 8.02204 159.716C8.55515 160.124 8.82171 160.695 8.82171 161.428C8.82171 161.928 8.68426 162.357 8.40938 162.715C8.13449 163.073 7.74716 163.323 7.24737 163.464V163.364C7.82213 163.489 8.26361 163.743 8.57181 164.127C8.88834 164.51 9.04661 164.993 9.04661 165.576C9.04661 166.334 8.77589 166.93 8.23445 167.363C7.70134 167.788 6.95166 168 5.9854 168H1.96209ZM3.53643 166.738H5.82297C6.41439 166.738 6.84337 166.638 7.10993 166.438C7.38481 166.23 7.52225 165.897 7.52225 165.439C7.52225 164.989 7.38481 164.656 7.10993 164.439C6.83504 164.222 6.40606 164.114 5.82297 164.114H3.53643V166.738ZM3.53643 162.852H5.59806C6.17282 162.852 6.59764 162.748 6.87253 162.54C7.14741 162.332 7.28485 162.019 7.28485 161.603C7.28485 161.178 7.14741 160.866 6.87253 160.666C6.59764 160.466 6.17282 160.366 5.59806 160.366H3.53643V162.852ZM12.7504 168.087C11.9757 168.087 11.3927 167.875 11.0012 167.45C10.618 167.017 10.4264 166.367 10.4264 165.501V161.69H11.9882V165.514C11.9882 165.972 12.084 166.309 12.2756 166.526C12.4672 166.742 12.7546 166.85 13.1378 166.85C13.5959 166.85 13.9624 166.701 14.2373 166.401C14.5122 166.101 14.6496 165.701 14.6496 165.201V161.69H16.224V168H14.6996V166.701L14.862 166.688C14.6788 167.146 14.4039 167.496 14.0374 167.738C13.6709 167.971 13.2419 168.087 12.7504 168.087ZM17.8948 168V161.69H19.4567V168H17.8948ZM17.8199 158.829H19.5566V160.366H17.8199V158.829ZM21.1405 168V158.804H22.7024V168H21.1405ZM23.6116 162.865V161.69H28.0597V162.865H23.6116ZM28.0597 166.701V167.938C27.8931 167.996 27.7265 168.033 27.5599 168.05C27.4016 168.075 27.2309 168.087 27.0476 168.087C26.3396 168.087 25.7898 167.888 25.3983 167.488C25.0151 167.088 24.8236 166.513 24.8236 165.763V160.153L26.3854 159.629V165.688C26.3854 165.972 26.4312 166.197 26.5228 166.363C26.6145 166.521 26.7353 166.634 26.8852 166.701C27.0435 166.767 27.2184 166.801 27.41 166.801C27.5183 166.801 27.6224 166.792 27.7223 166.776C27.8223 166.759 27.9347 166.734 28.0597 166.701ZM32.5493 168V158.804H34.1111V163.19L33.9737 163.002C34.107 162.552 34.3694 162.194 34.7609 161.928C35.1524 161.661 35.6147 161.528 36.1478 161.528C36.7059 161.528 37.1932 161.661 37.6097 161.928C38.0262 162.194 38.3552 162.573 38.5968 163.065C38.8383 163.556 38.9591 164.131 38.9591 164.789C38.9591 165.447 38.8383 166.026 38.5968 166.526C38.3552 167.025 38.022 167.413 37.5972 167.688C37.1807 167.954 36.6976 168.087 36.1478 168.087C35.6147 168.087 35.1524 167.963 34.7609 167.713C34.3694 167.454 34.107 167.092 33.9737 166.626L34.1111 166.401V168H32.5493ZM35.748 166.888C36.2644 166.888 36.6642 166.705 36.9475 166.338C37.2307 165.972 37.3723 165.455 37.3723 164.789C37.3723 164.139 37.2307 163.639 36.9475 163.289C36.6642 162.931 36.2644 162.752 35.748 162.752C35.2148 162.752 34.8067 162.931 34.5235 163.289C34.2486 163.648 34.1111 164.156 34.1111 164.814C34.1111 165.48 34.2486 165.993 34.5235 166.351C34.8067 166.709 35.2148 166.888 35.748 166.888ZM40.0624 170.836L39.7126 169.637C40.1041 169.554 40.429 169.454 40.6872 169.337C40.9454 169.229 41.1578 169.087 41.3244 168.912C41.4993 168.737 41.6451 168.512 41.7617 168.237L42.2115 167.213L42.6114 166.638L44.6355 161.69H46.1849L43.2611 168.425C43.0195 168.975 42.7405 169.412 42.424 169.737C42.1074 170.07 41.7492 170.32 41.3494 170.486C40.9579 170.653 40.5289 170.77 40.0624 170.836ZM42.249 168.412L39.3378 161.69H40.9746L42.9612 166.638L42.249 168.412Z" fill="white"/>
<path d="M82.1657 166.805V164.083C82.1657 163.143 81.8726 162.413 81.2972 161.919C80.7271 161.425 79.9439 161.172 78.9689 161.172C78.3349 161.172 77.7861 161.274 77.3439 161.468C76.8963 161.666 76.5393 161.929 76.2676 162.246C76.0012 162.563 75.8094 162.917 75.6869 163.304L75.6549 163.401L77.5516 164.045L77.573 163.932C77.6369 163.621 77.7754 163.363 77.9832 163.17C78.1857 162.976 78.5054 162.88 78.9369 162.88C79.3685 162.88 79.6935 162.982 79.8853 163.181C80.0824 163.385 80.1783 163.637 80.1783 163.954V164.265H78.2922C77.7381 164.265 77.2373 164.356 76.8004 164.528C76.3635 164.705 76.0119 164.974 75.7615 165.328C75.511 165.683 75.3832 166.123 75.3832 166.644C75.3832 167.165 75.511 167.61 75.7561 167.975C76.0065 168.335 76.3475 168.62 76.7684 168.808C77.1893 168.996 77.6689 169.087 78.1963 169.087C78.7238 169.087 79.1341 169.006 79.4377 168.856C79.7414 168.706 79.9705 168.523 80.1197 168.319C80.2369 168.153 80.3222 168.013 80.3701 167.9H80.482C80.5033 168.19 80.6365 168.421 80.871 168.598C81.1214 168.786 81.4411 168.883 81.8247 168.883H83.1513V167.149H82.464C82.2509 167.149 82.155 167.047 82.155 166.81L82.1657 166.805ZM80.1837 165.849V165.892C80.1837 166.348 80.0345 166.698 79.7308 166.971C79.4271 167.245 79.0222 167.379 78.532 167.379C78.1697 167.379 77.8926 167.304 77.7062 167.149C77.525 167.004 77.4344 166.816 77.4344 166.579C77.4344 166.343 77.5143 166.171 77.6848 166.042C77.8607 165.908 78.1111 165.844 78.4254 165.844H80.1783L80.1837 165.849Z" fill="white"/>
<path d="M88.8576 162.214H88.751C88.6498 162.048 88.5113 161.886 88.3355 161.736C88.1383 161.57 87.8879 161.435 87.5789 161.328C87.2699 161.221 86.8916 161.167 86.444 161.167C85.8473 161.167 85.2825 161.317 84.771 161.613C84.2596 161.913 83.844 162.354 83.535 162.928C83.2259 163.497 83.0714 164.201 83.0714 165.006V165.242C83.0714 166.053 83.2259 166.751 83.535 167.32C83.844 167.895 84.2649 168.335 84.7764 168.636C85.2932 168.931 85.8526 169.082 86.4387 169.082C87.1154 169.082 87.6428 168.963 88.0051 168.727C88.3408 168.507 88.6019 168.26 88.7724 167.992H88.8789V168.872H90.8929V158.375H88.8523V162.214H88.8576ZM88.3568 163.513C88.7084 163.862 88.8896 164.378 88.8896 165.049V165.194C88.8896 165.871 88.7084 166.386 88.3514 166.73C87.9945 167.079 87.5416 167.251 87.0035 167.251C86.4653 167.251 86.0178 167.073 85.6555 166.73C85.2985 166.381 85.1174 165.865 85.1174 165.194V165.049C85.1174 164.373 85.2985 163.857 85.6555 163.513C86.0125 163.164 86.4653 162.993 87.0035 162.993C87.5416 162.993 88.0051 163.17 88.3568 163.513Z" fill="white"/>
<path d="M97.2918 161.661C96.7536 161.333 96.1143 161.167 95.3843 161.167C94.6544 161.167 93.9937 161.328 93.4343 161.645C92.8749 161.962 92.4326 162.418 92.1236 162.993C91.8146 163.572 91.6601 164.254 91.6601 165.033V165.21C91.6601 165.989 91.8199 166.676 92.1343 167.256C92.4486 167.836 92.8962 168.287 93.4609 168.604C94.0257 168.92 94.681 169.082 95.4163 169.082C96.0876 169.082 96.6577 168.974 97.0946 168.754C97.5315 168.539 97.8885 168.271 98.1549 167.965C98.416 167.659 98.6184 167.374 98.7569 167.116L98.8049 167.025L97.1159 166.134L97.0733 166.23C96.9508 166.493 96.7749 166.735 96.5405 166.95C96.3167 167.154 95.9544 167.261 95.4696 167.261C94.9847 167.261 94.5798 167.111 94.2495 166.816C93.9405 166.542 93.7753 166.198 93.7327 165.774H98.9967V165.038C98.9967 164.281 98.8475 163.605 98.5492 163.025C98.2508 162.445 97.8246 161.988 97.2864 161.661H97.2918ZM94.2548 163.347C94.5265 163.111 94.8995 162.987 95.3737 162.987C95.8479 162.987 96.1942 163.111 96.4712 163.347C96.7217 163.562 96.8708 163.836 96.9241 164.185H93.7753C93.8499 163.841 94.0151 163.562 94.2601 163.347H94.2548Z" fill="white"/>
<path d="M101.746 158.375H99.7053V168.883H101.746V158.375Z" fill="white"/>
<path d="M104.9 161.376H102.859V168.878H104.9V161.376Z" fill="white"/>
<path d="M103.882 158.165C103.525 158.165 103.222 158.284 102.971 158.52C102.721 158.756 102.598 159.068 102.598 159.449C102.598 159.83 102.726 160.141 102.971 160.378C103.216 160.609 103.525 160.732 103.882 160.732C104.239 160.732 104.559 160.614 104.799 160.378C105.044 160.141 105.166 159.83 105.166 159.449C105.166 159.068 105.044 158.756 104.799 158.52C104.554 158.289 104.25 158.165 103.882 158.165Z" fill="white"/>
<path d="M111.549 161.623C110.963 161.323 110.292 161.172 109.562 161.172C108.832 161.172 108.161 161.323 107.575 161.623C106.983 161.924 106.514 162.37 106.173 162.944C105.832 163.519 105.662 164.211 105.662 165.012V165.248C105.662 166.048 105.832 166.746 106.173 167.315C106.514 167.89 106.983 168.335 107.575 168.636C108.161 168.937 108.827 169.087 109.562 169.087C110.297 169.087 110.963 168.937 111.549 168.636C112.135 168.335 112.61 167.89 112.951 167.315C113.292 166.74 113.462 166.048 113.462 165.248V165.012C113.462 164.211 113.292 163.519 112.951 162.944C112.61 162.37 112.141 161.929 111.549 161.623V161.623ZM109.562 167.234C109.029 167.234 108.582 167.057 108.23 166.714C107.878 166.37 107.703 165.86 107.703 165.205V165.06C107.703 164.405 107.878 163.895 108.23 163.551C108.582 163.207 109.024 163.03 109.562 163.03C110.1 163.03 110.558 163.207 110.899 163.551C111.246 163.895 111.416 164.405 111.416 165.06V165.205C111.416 165.86 111.24 166.37 110.889 166.714C110.542 167.063 110.095 167.234 109.557 167.234H109.562Z" fill="white"/>
<path d="M124.566 162.466C124.337 162.064 124.028 161.758 123.649 161.559C123.271 161.36 122.845 161.264 122.381 161.264C121.806 161.264 121.358 161.371 121.039 161.591C120.74 161.795 120.506 162.048 120.335 162.354H120.191C120.021 162.037 119.776 161.779 119.472 161.58C119.147 161.371 118.71 161.264 118.177 161.264C117.682 161.264 117.277 161.36 116.973 161.554C116.691 161.731 116.478 161.94 116.339 162.176H116.238V161.382H114.224V168.883H116.265V164.469C116.265 163.997 116.371 163.632 116.584 163.379C116.797 163.132 117.085 163.009 117.479 163.009C117.82 163.009 118.087 163.1 118.268 163.283C118.449 163.465 118.545 163.744 118.545 164.115V168.883H120.586V164.469C120.586 163.997 120.692 163.632 120.905 163.379C121.113 163.132 121.406 163.009 121.8 163.009C122.141 163.009 122.408 163.1 122.589 163.283C122.77 163.465 122.866 163.744 122.866 164.115V168.883H124.907V163.981C124.907 163.379 124.789 162.869 124.566 162.466V162.466Z" fill="white"/>
<path d="M71.3499 163.497C71.3499 159.057 67.7588 155.438 63.3473 155.438V163.503H71.3446L71.3499 163.497Z" fill="#FA2869"/>
<path d="M59.3513 163.503C61.5612 163.503 63.3526 161.697 63.3526 159.47C63.3526 157.243 61.5612 155.438 59.3513 155.438C57.1415 155.438 55.35 157.243 55.35 159.47C55.35 161.697 57.1415 163.503 59.3513 163.503Z" fill="#FFCE1F"/>
<path d="M71.3499 163.497H59.3513C57.1509 163.508 55.366 165.307 55.366 167.53C55.366 169.753 57.1562 171.562 59.3673 171.562H71.3499V163.497V163.497Z" fill="#8C46FF"/>
<path d="M63.3473 163.497C63.3473 167.943 66.933 171.557 71.3446 171.557V163.492H63.3473V163.497Z" fill="#530ECB"/>
<rect x="1" y="1" width="44.5333" height="44.5333" rx="5.56667" fill="white"/>
<g filter="url(#filter0_di_5505_6297)">
<path fill-rule="evenodd" clip-rule="evenodd" d="M22.1661 6.68022C22.6861 6.37994 23.3268 6.37994 23.8468 6.68022L36.8771 14.2045C37.397 14.5048 37.7173 15.0595 37.7173 15.6598V30.7018C37.7173 31.302 37.3971 31.8567 36.8774 32.1569L23.8471 39.6845C23.3269 39.985 22.6859 39.985 22.1658 39.6845L9.13546 32.1569C8.61573 31.8567 8.29559 31.302 8.29559 30.7018V15.6598C8.29559 15.0595 8.61585 14.5048 9.13574 14.2045L22.1661 6.68022ZM12.8471 16.3459C12.327 16.6461 12.0067 17.2009 12.0067 17.8013V28.5638C12.0067 29.1642 12.327 29.7191 12.8471 30.0192L22.1663 35.3989C22.6862 35.699 23.3267 35.699 23.8466 35.3989L33.1658 30.0192C33.6858 29.7191 34.0062 29.1642 34.0062 28.5638V17.7979C34.0062 17.1973 33.6857 16.6424 33.1655 16.3423L23.8465 10.9659C23.3266 10.666 22.6863 10.6661 22.1665 10.9661L12.8471 16.3459Z" fill="#8C46FF"/>
<path d="M26.7175 23.1807C26.7175 25.233 25.055 26.8918 23.0064 26.8918C20.9579 26.8918 19.2953 25.233 19.2953 23.1807C19.2953 21.1322 20.9579 19.4696 23.0064 19.4696C25.055 19.4696 26.7175 21.1322 26.7175 23.1807Z" fill="#8C46FF"/>
</g>
<g filter="url(#filter1_d_5505_6297)">
<rect x="25.3542" y="25.3542" width="16.3521" height="16.3521" rx="8.17604" fill="white" shape-rendering="crispEdges"/>
<path d="M37.7424 33.5288C37.7424 31.2088 35.8516 29.318 33.5288 29.318V33.5316H37.7396L37.7424 33.5288Z" fill="#EC2E69"/>
<path d="M31.4248 33.5316C32.5884 33.5316 33.5316 32.5884 33.5316 31.4248C33.5316 30.2613 32.5884 29.318 31.4248 29.318C30.2613 29.318 29.318 30.2613 29.318 31.4248C29.318 32.5884 30.2613 33.5316 31.4248 33.5316Z" fill="#FFCE1F"/>
<path d="M37.7424 33.5288H31.4248C30.2662 33.5344 29.3264 34.4742 29.3264 35.6356C29.3264 36.797 30.269 37.7424 31.4332 37.7424H37.7424V33.5288V33.5288Z" fill="#8C46FF"/>
<path d="M33.5288 33.5288C33.5288 35.8516 35.4168 37.7396 37.7396 37.7396V33.526H33.5288V33.5288Z" fill="#530ECB"/>
</g>
<path d="M1.54941 93L7.16559 71.6341H14.1858L19.802 93H15.6509L14.491 88.2995H6.86036L5.7005 93H1.54941ZM7.80657 84.5757H13.5448L10.9504 74.1675H10.401L7.80657 84.5757ZM28.5861 93.4273C27.3855 93.4273 26.2562 93.1323 25.1981 92.5422C24.1603 91.9317 23.326 91.0465 22.6952 89.8867C22.0644 88.7268 21.749 87.3228 21.749 85.6745V85.1862C21.749 83.538 22.0644 82.1339 22.6952 80.974C23.326 79.8142 24.1603 78.9392 25.1981 78.3491C26.2359 77.7386 27.3652 77.4334 28.5861 77.4334C29.5018 77.4334 30.2649 77.5453 30.8753 77.7692C31.5061 77.9726 32.0148 78.2372 32.4015 78.5627C32.7881 78.8883 33.0831 79.2342 33.2866 79.6005H33.836V71.6341H37.6819V93H33.8971V91.1686H33.3477C33.0017 91.7384 32.4625 92.2573 31.73 92.7253C31.0178 93.1933 29.9698 93.4273 28.5861 93.4273ZM29.746 90.0698C30.9262 90.0698 31.9131 89.6934 32.7067 88.9405C33.5003 88.1672 33.8971 87.0481 33.8971 85.583V85.2777C33.8971 83.8127 33.5003 82.7037 32.7067 81.9508C31.9334 81.1775 30.9465 80.7909 29.746 80.7909C28.5658 80.7909 27.5789 81.1775 26.7853 81.9508C25.9917 82.7037 25.5949 83.8127 25.5949 85.2777V85.583C25.5949 87.0481 25.9917 88.1672 26.7853 88.9405C27.5789 89.6934 28.5658 90.0698 29.746 90.0698ZM48.8439 93.4273C47.3381 93.4273 46.0053 93.1119 44.8454 92.4811C43.7059 91.83 42.8106 90.9245 42.1594 89.7646C41.5286 88.5844 41.2132 87.2007 41.2132 85.6135V85.2472C41.2132 83.66 41.5286 82.2865 42.1594 81.1267C42.7902 79.9464 43.6754 79.0409 44.8149 78.4101C45.9544 77.759 47.2771 77.4334 48.7829 77.4334C50.2683 77.4334 51.5604 77.7692 52.6592 78.4407C53.7581 79.0918 54.6127 80.0075 55.2232 81.1877C55.8336 82.3476 56.1388 83.7007 56.1388 85.2472V86.5597H45.1201C45.1608 87.5975 45.5474 88.4419 46.28 89.0931C47.0125 89.7442 47.9079 90.0698 48.966 90.0698C50.0445 90.0698 50.8381 89.8358 51.3468 89.3678C51.8555 88.8998 52.2421 88.3809 52.5066 87.8111L55.6505 89.4594C55.3656 89.9884 54.9484 90.5684 54.399 91.1992C53.87 91.8096 53.1578 92.3387 52.2624 92.7863C51.3671 93.2137 50.2276 93.4273 48.8439 93.4273ZM45.1507 83.6906H52.2319C52.1505 82.8156 51.7944 82.1136 51.1636 81.5845C50.5532 81.0554 49.7494 80.7909 48.7523 80.7909C47.7146 80.7909 46.8904 81.0554 46.28 81.5845C45.6695 82.1136 45.2931 82.8156 45.1507 83.6906ZM59.5619 93V71.6341H63.4078V93H59.5619ZM67.6695 93V77.8607H71.5154V93H67.6695ZM69.5924 76.0904C68.9006 76.0904 68.3105 75.8666 67.8221 75.4189C67.3541 74.9712 67.1201 74.3811 67.1201 73.6486C67.1201 72.916 67.3541 72.3259 67.8221 71.8783C68.3105 71.4306 68.9006 71.2068 69.5924 71.2068C70.3046 71.2068 70.8947 71.4306 71.3628 71.8783C71.8308 72.3259 72.0648 72.916 72.0648 73.6486C72.0648 74.3811 71.8308 74.9712 71.3628 75.4189C70.8947 75.8666 70.3046 76.0904 69.5924 76.0904ZM82.9805 93.4273C81.4747 93.4273 80.1215 93.1221 78.921 92.5116C77.7204 91.9012 76.7742 91.016 76.0823 89.8562C75.3905 88.6963 75.0446 87.3024 75.0446 85.6745V85.1862C75.0446 83.5583 75.3905 82.1644 76.0823 81.0046C76.7742 79.8447 77.7204 78.9595 78.921 78.3491C80.1215 77.7386 81.4747 77.4334 82.9805 77.4334C84.4863 77.4334 85.8394 77.7386 87.04 78.3491C88.2406 78.9595 89.1868 79.8447 89.8786 81.0046C90.5705 82.1644 90.9164 83.5583 90.9164 85.1862V85.6745C90.9164 87.3024 90.5705 88.6963 89.8786 89.8562C89.1868 91.016 88.2406 91.9012 87.04 92.5116C85.8394 93.1221 84.4863 93.4273 82.9805 93.4273ZM82.9805 90.0088C84.1607 90.0088 85.1374 89.6323 85.9107 88.8794C86.6839 88.1062 87.0705 87.0074 87.0705 85.583V85.2777C87.0705 83.8534 86.6839 82.7647 85.9107 82.0118C85.1578 81.2386 84.181 80.852 82.9805 80.852C81.8003 80.852 80.8235 81.2386 80.0503 82.0118C79.277 82.7647 78.8904 83.8534 78.8904 85.2777V85.583C78.8904 87.0074 79.277 88.1062 80.0503 88.8794C80.8235 89.6323 81.8003 90.0088 82.9805 90.0088ZM94.4663 93V77.8607H98.2511V79.509H98.8005C99.0651 79.0002 99.5026 78.5627 100.113 78.1965C100.723 77.8099 101.527 77.6165 102.524 77.6165C103.603 77.6165 104.468 77.8302 105.119 78.2575C105.77 78.6645 106.268 79.2037 106.614 79.8752H107.164C107.51 79.2241 107.998 78.6848 108.629 78.2575C109.26 77.8302 110.155 77.6165 111.315 77.6165C112.251 77.6165 113.095 77.82 113.848 78.227C114.621 78.6136 115.232 79.2139 115.68 80.0278C116.148 80.8214 116.382 81.8287 116.382 83.0496V93H112.536V83.3243C112.536 82.49 112.322 81.8694 111.895 81.4624C111.467 81.0351 110.867 80.8214 110.094 80.8214C109.219 80.8214 108.537 81.1063 108.049 81.6761C107.581 82.2255 107.347 83.0191 107.347 84.0568V93H103.501V83.3243C103.501 82.49 103.287 81.8694 102.86 81.4624C102.433 81.0351 101.832 80.8214 101.059 80.8214C100.184 80.8214 99.5026 81.1063 99.0142 81.6761C98.5462 82.2255 98.3122 83.0191 98.3122 84.0568V93H94.4663ZM4.72377 130L1.91568 108.634H5.91416L7.98971 127.192H8.53911L11.2251 108.634H18.1843L20.8703 127.192H21.4197L23.4953 108.634H27.4937L24.6856 130H17.7265L14.9794 111.015H14.43L11.683 130H4.72377ZM37.2786 130.427C35.7729 130.427 34.44 130.112 33.2802 129.481C32.1407 128.83 31.2453 127.924 30.5942 126.765C29.9634 125.584 29.648 124.201 29.648 122.613V122.247C29.648 120.66 29.9634 119.287 30.5942 118.127C31.225 116.946 32.1101 116.041 33.2496 115.41C34.3892 114.759 35.7118 114.433 37.2176 114.433C38.703 114.433 39.9952 114.769 41.094 115.441C42.1928 116.092 43.0474 117.007 43.6579 118.188C44.2684 119.348 44.5736 120.701 44.5736 122.247V123.56H33.5549C33.5956 124.597 33.9822 125.442 34.7147 126.093C35.4473 126.744 36.3426 127.07 37.4007 127.07C38.4792 127.07 39.2728 126.836 39.7815 126.368C40.2902 125.9 40.6768 125.381 40.9414 124.811L44.0852 126.459C43.8003 126.988 43.3832 127.568 42.8338 128.199C42.3047 128.81 41.5925 129.339 40.6972 129.786C39.8019 130.214 38.6623 130.427 37.2786 130.427ZM33.5854 120.691H40.6667C40.5853 119.816 40.2292 119.114 39.5984 118.584C38.9879 118.055 38.1842 117.791 37.1871 117.791C36.1493 117.791 35.3252 118.055 34.7147 118.584C34.1043 119.114 33.7278 119.816 33.5854 120.691ZM57.0924 130.427C55.7291 130.427 54.6811 130.193 53.9486 129.725C53.216 129.257 52.6768 128.738 52.3309 128.169H51.7815V130H47.9967V108.634H51.8425V116.601H52.3919C52.6158 116.234 52.9108 115.888 53.2771 115.563C53.6637 115.237 54.1623 114.973 54.7727 114.769C55.4035 114.545 56.1768 114.433 57.0924 114.433C58.3133 114.433 59.4427 114.739 60.4805 115.349C61.5182 115.939 62.3525 116.814 62.9833 117.974C63.6141 119.134 63.9295 120.538 63.9295 122.186V122.675C63.9295 124.323 63.6141 125.727 62.9833 126.887C62.3525 128.047 61.5182 128.932 60.4805 129.542C59.4427 130.132 58.3133 130.427 57.0924 130.427ZM55.9326 127.07C57.1128 127.07 58.0997 126.693 58.8933 125.94C59.6869 125.167 60.0837 124.048 60.0837 122.583V122.278C60.0837 120.813 59.6869 119.704 58.8933 118.951C58.12 118.178 57.1331 117.791 55.9326 117.791C54.7524 117.791 53.7655 118.178 52.9719 118.951C52.1783 119.704 51.7815 120.813 51.7815 122.278V122.583C51.7815 124.048 52.1783 125.167 52.9719 125.94C53.7655 126.693 54.7524 127.07 55.9326 127.07ZM75.4578 130.427C72.8125 130.427 70.7166 129.695 69.1701 128.23C67.6236 126.744 66.8504 124.628 66.8504 121.881V116.753C66.8504 114.006 67.6236 111.9 69.1701 110.435C70.7166 108.949 72.8125 108.207 75.4578 108.207C78.0828 108.207 80.1074 108.929 81.5318 110.374C82.9766 111.798 83.6989 113.762 83.6989 116.265V116.448H79.731V116.143C79.731 114.881 79.3749 113.843 78.6627 113.029C77.9708 112.215 76.9026 111.808 75.4578 111.808C74.0334 111.808 72.9143 112.246 72.1003 113.121C71.2864 113.996 70.8794 115.186 70.8794 116.692V121.942C70.8794 123.427 71.2864 124.618 72.1003 125.513C72.9143 126.388 74.0334 126.826 75.4578 126.826C76.9026 126.826 77.9708 126.419 78.6627 125.605C79.3749 124.77 79.731 123.733 79.731 122.491V121.942H83.6989V122.369C83.6989 124.872 82.9766 126.846 81.5318 128.291C80.1074 129.715 78.0828 130.427 75.4578 130.427ZM94.3073 130.427C92.8015 130.427 91.4483 130.122 90.2477 129.512C89.0472 128.901 88.101 128.016 87.4091 126.856C86.7173 125.696 86.3714 124.302 86.3714 122.675V122.186C86.3714 120.558 86.7173 119.164 87.4091 118.005C88.101 116.845 89.0472 115.96 90.2477 115.349C91.4483 114.739 92.8015 114.433 94.3073 114.433C95.8131 114.433 97.1662 114.739 98.3668 115.349C99.5674 115.96 100.514 116.845 101.205 118.005C101.897 119.164 102.243 120.558 102.243 122.186V122.675C102.243 124.302 101.897 125.696 101.205 126.856C100.514 128.016 99.5674 128.901 98.3668 129.512C97.1662 130.122 95.8131 130.427 94.3073 130.427ZM94.3073 127.009C95.4875 127.009 96.4642 126.632 97.2375 125.879C98.0107 125.106 98.3973 124.007 98.3973 122.583V122.278C98.3973 120.853 98.0107 119.765 97.2375 119.012C96.4846 118.239 95.5078 117.852 94.3073 117.852C93.1271 117.852 92.1503 118.239 91.3771 119.012C90.6038 119.765 90.2172 120.853 90.2172 122.278V122.583C90.2172 124.007 90.6038 125.106 91.3771 125.879C92.1503 126.632 93.1271 127.009 94.3073 127.009ZM105.793 130V114.861H109.578V116.509H110.127C110.392 116 110.829 115.563 111.44 115.196C112.05 114.81 112.854 114.617 113.851 114.617C114.93 114.617 115.794 114.83 116.446 115.258C117.097 115.664 117.595 116.204 117.941 116.875H118.491C118.836 116.224 119.325 115.685 119.956 115.258C120.586 114.83 121.482 114.617 122.642 114.617C123.578 114.617 124.422 114.82 125.175 115.227C125.948 115.614 126.559 116.214 127.006 117.028C127.474 117.821 127.708 118.829 127.708 120.05V130H123.863V120.324C123.863 119.49 123.649 118.869 123.222 118.462C122.794 118.035 122.194 117.821 121.421 117.821C120.546 117.821 119.864 118.106 119.376 118.676C118.908 119.225 118.674 120.019 118.674 121.057V130H114.828V120.324C114.828 119.49 114.614 118.869 114.187 118.462C113.76 118.035 113.159 117.821 112.386 117.821C111.511 117.821 110.829 118.106 110.341 118.676C109.873 119.225 109.639 120.019 109.639 121.057V130H105.793ZM131.845 136.105V114.861H135.63V116.692H136.179C136.525 116.102 137.064 115.583 137.797 115.135C138.529 114.667 139.577 114.433 140.941 114.433C142.161 114.433 143.291 114.739 144.329 115.349C145.366 115.939 146.201 116.814 146.831 117.974C147.462 119.134 147.778 120.538 147.778 122.186V122.675C147.778 124.323 147.462 125.727 146.831 126.887C146.201 128.047 145.366 128.932 144.329 129.542C143.291 130.132 142.161 130.427 140.941 130.427C140.025 130.427 139.252 130.315 138.621 130.092C138.01 129.888 137.512 129.624 137.125 129.298C136.759 128.952 136.464 128.606 136.24 128.26H135.691V136.105H131.845ZM139.781 127.07C140.981 127.07 141.968 126.693 142.741 125.94C143.535 125.167 143.932 124.048 143.932 122.583V122.278C143.932 120.813 143.535 119.704 142.741 118.951C141.948 118.178 140.961 117.791 139.781 117.791C138.6 117.791 137.614 118.178 136.82 118.951C136.026 119.704 135.63 120.813 135.63 122.278V122.583C135.63 124.048 136.026 125.167 136.82 125.94C137.614 126.693 138.6 127.07 139.781 127.07ZM158.512 130.427C157.007 130.427 155.653 130.122 154.453 129.512C153.252 128.901 152.306 128.016 151.614 126.856C150.922 125.696 150.576 124.302 150.576 122.675V122.186C150.576 120.558 150.922 119.164 151.614 118.005C152.306 116.845 153.252 115.96 154.453 115.349C155.653 114.739 157.007 114.433 158.512 114.433C160.018 114.433 161.371 114.739 162.572 115.349C163.772 115.96 164.719 116.845 165.41 118.005C166.102 119.164 166.448 120.558 166.448 122.186V122.675C166.448 124.302 166.102 125.696 165.41 126.856C164.719 128.016 163.772 128.901 162.572 129.512C161.371 130.122 160.018 130.427 158.512 130.427ZM158.512 127.009C159.693 127.009 160.669 126.632 161.442 125.879C162.216 125.106 162.602 124.007 162.602 122.583V122.278C162.602 120.853 162.216 119.765 161.442 119.012C160.69 118.239 159.713 117.852 158.512 117.852C157.332 117.852 156.355 118.239 155.582 119.012C154.809 119.765 154.422 120.853 154.422 122.278V122.583C154.422 124.007 154.809 125.106 155.582 125.879C156.355 126.632 157.332 127.009 158.512 127.009ZM169.998 130V114.861H173.783V116.845H174.332C174.577 116.316 175.034 115.817 175.706 115.349C176.377 114.861 177.395 114.617 178.758 114.617C179.938 114.617 180.966 114.891 181.841 115.441C182.736 115.97 183.428 116.712 183.917 117.669C184.405 118.605 184.649 119.704 184.649 120.965V130H180.803V121.27C180.803 120.131 180.518 119.276 179.949 118.707C179.399 118.137 178.606 117.852 177.568 117.852C176.388 117.852 175.472 118.249 174.821 119.042C174.17 119.816 173.844 120.904 173.844 122.308V130H169.998ZM195.705 130.427C194.199 130.427 192.866 130.112 191.706 129.481C190.567 128.83 189.671 127.924 189.02 126.765C188.389 125.584 188.074 124.201 188.074 122.613V122.247C188.074 120.66 188.389 119.287 189.02 118.127C189.651 116.946 190.536 116.041 191.676 115.41C192.815 114.759 194.138 114.433 195.644 114.433C197.129 114.433 198.421 114.769 199.52 115.441C200.619 116.092 201.474 117.007 202.084 118.188C202.694 119.348 203 120.701 203 122.247V123.56H191.981C192.022 124.597 192.408 125.442 193.141 126.093C193.873 126.744 194.769 127.07 195.827 127.07C196.905 127.07 197.699 126.836 198.208 126.368C198.716 125.9 199.103 125.381 199.367 124.811L202.511 126.459C202.226 126.988 201.809 127.568 201.26 128.199C200.731 128.81 200.019 129.339 199.123 129.786C198.228 130.214 197.088 130.427 195.705 130.427ZM192.011 120.691H199.093C199.011 119.816 198.655 119.114 198.024 118.584C197.414 118.055 196.61 117.791 195.613 117.791C194.575 117.791 193.751 118.055 193.141 118.584C192.53 119.114 192.154 119.816 192.011 120.691ZM206.423 130V114.861H210.208V116.845H210.757C211.001 116.316 211.459 115.817 212.13 115.349C212.802 114.861 213.819 114.617 215.183 114.617C216.363 114.617 217.391 114.891 218.266 115.441C219.161 115.97 219.853 116.712 220.341 117.669C220.829 118.605 221.074 119.704 221.074 120.965V130H217.228V121.27C217.228 120.131 216.943 119.276 216.373 118.707C215.824 118.137 215.03 117.852 213.992 117.852C212.812 117.852 211.896 118.249 211.245 119.042C210.594 119.816 210.269 120.904 210.269 122.308V130H206.423ZM230.613 130C229.616 130 228.802 129.695 228.171 129.084C227.561 128.454 227.256 127.619 227.256 126.581V118.035H223.471V114.861H227.256V110.16H231.102V114.861H235.253V118.035H231.102V125.91C231.102 126.52 231.386 126.826 231.956 126.826H234.886V130H230.613ZM245.022 130.427C243.048 130.427 241.43 130 240.168 129.145C238.907 128.291 238.144 127.07 237.879 125.483L241.42 124.567C241.562 125.279 241.796 125.839 242.122 126.246C242.468 126.653 242.885 126.948 243.373 127.131C243.882 127.294 244.431 127.375 245.022 127.375C245.917 127.375 246.578 127.222 247.006 126.917C247.433 126.592 247.647 126.195 247.647 125.727C247.647 125.259 247.443 124.903 247.036 124.659C246.629 124.394 245.978 124.18 245.083 124.018L244.228 123.865C243.17 123.661 242.203 123.387 241.328 123.041C240.453 122.675 239.751 122.176 239.222 121.545C238.693 120.914 238.429 120.1 238.429 119.103C238.429 117.598 238.978 116.448 240.077 115.654C241.176 114.84 242.62 114.433 244.411 114.433C246.1 114.433 247.504 114.81 248.623 115.563C249.742 116.316 250.475 117.303 250.821 118.523L247.25 119.622C247.087 118.849 246.751 118.3 246.243 117.974C245.754 117.648 245.144 117.486 244.411 117.486C243.679 117.486 243.119 117.618 242.732 117.882C242.346 118.127 242.152 118.473 242.152 118.92C242.152 119.409 242.356 119.775 242.763 120.019C243.17 120.243 243.719 120.416 244.411 120.538L245.266 120.691C246.405 120.894 247.433 121.169 248.349 121.515C249.285 121.84 250.017 122.318 250.546 122.949C251.096 123.56 251.37 124.394 251.37 125.452C251.37 127.039 250.79 128.27 249.631 129.145C248.491 130 246.955 130.427 245.022 130.427Z" fill="white"/>
<defs>
<filter id="filter0_di_5505_6297" x="6.19496" y="6.03488" width="33.6229" height="37.6562" filterUnits="userSpaceOnUse" color-interpolation-filters="sRGB">
<feFlood flood-opacity="0" result="BackgroundImageFix"/>
<feColorMatrix in="SourceAlpha" type="matrix" values="0 0 0 0 0 0 0 0 0 0 0 0 0 0 0 0 0 0 127 0" result="hardAlpha"/>
<feOffset dy="1.6805"/>
<feGaussianBlur stdDeviation="1.05031"/>
<feComposite in2="hardAlpha" operator="out"/>
<feColorMatrix type="matrix" values="0 0 0 0 0 0 0 0 0 0 0 0 0 0 0 0 0 0 0.2 0"/>
<feBlend mode="normal" in2="BackgroundImageFix" result="effect1_dropShadow_5505_6297"/>
<feBlend mode="normal" in="SourceGraphic" in2="effect1_dropShadow_5505_6297" result="shape"/>
<feColorMatrix in="SourceAlpha" type="matrix" values="0 0 0 0 0 0 0 0 0 0 0 0 0 0 0 0 0 0 127 0" result="hardAlpha"/>
<feOffset dx="0.840252" dy="0.840252"/>
<feGaussianBlur stdDeviation="0.840252"/>
<feComposite in2="hardAlpha" operator="arithmetic" k2="-1" k3="1"/>
<feColorMatrix type="matrix" values="0 0 0 0 0 0 0 0 0 0 0 0 0 0 0 0 0 0 0.18 0"/>
<feBlend mode="normal" in2="shape" result="effect2_innerShadow_5505_6297"/>
</filter>
<filter id="filter1_d_5505_6297" x="25.3542" y="25.3542" width="16.3521" height="18.4396" filterUnits="userSpaceOnUse" color-interpolation-filters="sRGB">
<feFlood flood-opacity="0" result="BackgroundImageFix"/>
<feColorMatrix in="SourceAlpha" type="matrix" values="0 0 0 0 0 0 0 0 0 0 0 0 0 0 0 0 0 0 127 0" result="hardAlpha"/>
<feMorphology radius="5.56667" operator="erode" in="SourceAlpha" result="effect1_dropShadow_5505_6297"/>
<feOffset dy="2.0875"/>
<feGaussianBlur stdDeviation="2.78333"/>
<feComposite in2="hardAlpha" operator="out"/>
<feColorMatrix type="matrix" values="0 0 0 0 0 0 0 0 0 0 0 0 0 0 0 0 0 0 0.32 0"/>
<feBlend mode="normal" in2="BackgroundImageFix" result="effect1_dropShadow_5505_6297"/>
<feBlend mode="normal" in="SourceGraphic" in2="effect1_dropShadow_5505_6297" result="shape"/>
</filter>
</defs>
</svg>
