<svg xmlns="http://www.w3.org/2000/svg" fill="none" viewBox="0 0 220 64"><g clip-path="url(#a)"><path fill="#fff" d="M103.047 33.77V23.715c0-3.529-1.112-6.274-3.312-8.153-2.17-1.857-5.147-2.802-8.834-2.802-2.397 0-4.47.374-6.155 1.107-1.696.738-3.068 1.724-4.081 2.929a11.575 11.575 0 0 0-2.212 3.972l-.173.542 7.485 2.508.133-.64c.232-1.118.713-2.006 1.465-2.71.724-.674 1.876-1.014 3.422-1.014 1.546 0 2.72.351 3.404 1.05.695.708 1.036 1.602 1.036 2.72v.946h-6.843c-2.101 0-4 .334-5.645.992-1.678.674-3.016 1.69-3.965 3.027-.956 1.343-1.442 3.015-1.442 4.981 0 1.967.486 3.65 1.442 5.028.95 1.367 2.252 2.422 3.873 3.137 1.598.697 3.416 1.055 5.419 1.055 2.003 0 3.566-.294 4.73-.877 1.17-.582 2.05-1.274 2.61-2.052.412-.57.707-1.055.904-1.47h.098c.128 1.038.631 1.89 1.511 2.548.973.727 2.206 1.096 3.677 1.096h5.164V34.83h-2.762c-.584 0-.949-.179-.949-1.055v-.006Zm-7.816-3.338c-.006 1.603-.538 2.842-1.632 3.8-1.106.968-2.565 1.458-4.337 1.458-1.314 0-2.31-.265-2.964-.796-.625-.507-.932-1.141-.932-1.943 0-.801.284-1.39.862-1.822.62-.467 1.517-.697 2.652-.697h6.351ZM137.043 35.73l-3.474-22.203h-12.013l-3.468 22.203-2.391-22.203h-8.007l3.983 28.102h12.401l3.491-22.302 3.485 22.302h12.402l3.983-28.102h-8.007l-2.385 22.203ZM170.743 29.21l-.104.61c-.272 1.61-.903 2.924-1.882 3.898-.955.952-2.408 1.436-4.313 1.436-1.279 0-2.443-.277-3.462-.83-1.001-.542-1.806-1.355-2.385-2.428-.585-1.084-.886-2.445-.886-4.047v-.542c0-1.597.295-2.958.886-4.048.579-1.072 1.384-1.885 2.385-2.427 1.019-.548 2.183-.825 3.462-.825 1.28 0 2.351.23 3.185.692.839.461 1.47 1.067 1.933 1.85.469.802.776 1.713.909 2.722l.081.617 7.816-1.66-.098-.548c-.377-2.07-1.176-3.95-2.363-5.587-1.198-1.643-2.784-2.958-4.712-3.903-1.928-.94-4.255-1.419-6.913-1.419-2.657 0-5.181.571-7.381 1.695a12.88 12.88 0 0 0-5.28 4.947c-1.286 2.145-1.94 4.769-1.94 7.796v.76c0 3.028.654 5.651 1.94 7.796a12.918 12.918 0 0 0 5.28 4.947c2.2 1.124 4.683 1.695 7.381 1.695 2.698 0 4.985-.478 6.913-1.418 1.934-.94 3.52-2.255 4.712-3.904a15.56 15.56 0 0 0 2.525-5.443l.139-.564-7.828-1.851v-.018Z"/><path fill="#CFD1D6" d="M199.366 33.626v8.003l20.669-8.989V22.458l-20.669-8.995v8.009l13.843 5.985v.184l-13.843 5.985ZM188.164 13.527 184.25 41.71h8.094l3.908-28.184h-8.088Z"/><path fill="#fff" d="M79.565 54.573a2.12 2.12 0 0 1-1.14-.306 2.063 2.063 0 0 1-.77-.882c-.186-.386-.279-.842-.279-1.372 0-.53.093-.986.278-1.366.185-.381.44-.675.77-.877.33-.202.706-.306 1.14-.306.435 0 .823.11 1.147.33.324.218.538.518.643.899h-.116l.11-1.136h.868c-.017.196-.04.392-.052.588-.011.196-.023.386-.023.576v3.766h-.897v-1.13h.11a1.536 1.536 0 0 1-.643.887c-.324.22-.706.329-1.135.329h-.011Zm.208-.703c.446 0 .805-.156 1.071-.473.266-.317.405-.773.405-1.384 0-.611-.133-1.067-.405-1.372-.266-.306-.625-.462-1.07-.462-.447 0-.806.156-1.078.462-.272.305-.41.767-.41 1.372 0 .605.132 1.067.404 1.384.273.317.632.473 1.083.473ZM86.76 54.573a2.12 2.12 0 0 1-1.14-.306 2.063 2.063 0 0 1-.77-.882c-.185-.386-.277-.842-.277-1.372 0-.53.092-.986.277-1.366.186-.381.44-.675.77-.877.33-.202.707-.306 1.14-.306.435 0 .811.11 1.136.323.324.214.544.514.654.894h-.116v-3.413h.898v7.213h-.886v-1.148h.11a1.54 1.54 0 0 1-.643.906c-.324.219-.706.328-1.146.328l-.006.006Zm.21-.703c.445 0 .804-.156 1.076-.473.272-.317.411-.773.411-1.384 0-.611-.139-1.067-.41-1.372-.273-.306-.632-.462-1.078-.462-.445 0-.804.156-1.076.462-.273.305-.412.767-.412 1.372 0 .605.14 1.067.412 1.384.272.311.63.473 1.076.473ZM94.322 54.573c-.787 0-1.407-.225-1.864-.675-.457-.45-.683-1.072-.683-1.862 0-.525.098-.974.3-1.355.203-.38.475-.68.834-.894.354-.213.77-.317 1.24-.317.468 0 .839.098 1.151.289.313.19.556.467.718.818.162.352.243.773.243 1.257v.294h-3.786v-.53h3.179l-.168.127c0-.508-.116-.906-.342-1.188-.226-.283-.561-.421-1.001-.421-.481 0-.852.167-1.112.496-.26.328-.394.778-.394 1.35v.086c0 .6.15 1.055.446 1.36.301.306.712.462 1.245.462.295 0 .573-.04.828-.127a2.35 2.35 0 0 0 .74-.421l.296.617a2.385 2.385 0 0 1-.834.472 3.144 3.144 0 0 1-1.036.168v-.006ZM98.67 54.48v-7.212h.896v7.213h-.896ZM102.225 48.473v-.963h1.064v.963h-1.064Zm.081 6.008v-4.93h.896v4.93h-.896ZM108.02 54.573c-.486 0-.903-.104-1.262-.311a2.145 2.145 0 0 1-.828-.883c-.197-.38-.295-.836-.295-1.354 0-.52.098-.986.295-1.367.197-.38.475-.675.828-.882.353-.208.776-.312 1.262-.312s.909.104 1.262.312c.359.207.631.502.828.882.191.38.29.836.29 1.355s-.099.986-.29 1.367a2.07 2.07 0 0 1-.828.882c-.359.207-.781.311-1.262.311Zm0-.703c.446 0 .805-.156 1.071-.473.266-.317.405-.773.405-1.384 0-.611-.133-1.067-.405-1.372-.266-.306-.625-.462-1.071-.462-.446 0-.81.156-1.077.462-.266.305-.399.767-.399 1.372 0 .605.133 1.067.399 1.384.267.317.625.473 1.077.473ZM112.843 54.48v-3.764c0-.19-.006-.38-.018-.577-.011-.196-.035-.392-.058-.588h.869l.098 1.06h-.116c.134-.362.342-.645.631-.847.29-.202.631-.3 1.037-.3.405 0 .741.099 1.001.289.261.19.44.496.533.905h-.145c.128-.363.348-.657.66-.87a1.915 1.915 0 0 1 1.1-.323c.544 0 .955.16 1.228.472.277.317.411.808.411 1.476v3.068h-.898v-3.022c0-.45-.081-.778-.237-.974-.156-.202-.405-.3-.747-.3-.399 0-.718.139-.944.41-.231.27-.341.64-.341 1.1v2.786h-.898v-3.022c0-.45-.075-.778-.231-.974-.156-.202-.405-.3-.753-.3-.399 0-.712.139-.938.41-.225.27-.341.64-.341 1.1v2.786h-.903ZM127.953 54.48l-1.852-4.929h.937l1.494 4.226h-.255l1.535-4.226h.729l1.523 4.226h-.243l1.505-4.226h.897l-1.858 4.93h-.845l-1.575-4.296h.434l-1.563 4.296h-.863ZM138.612 54.573c-.788 0-1.407-.225-1.865-.675-.457-.45-.683-1.072-.683-1.862 0-.525.099-.974.301-1.355.203-.38.475-.68.834-.894.353-.213.77-.317 1.239-.317.469 0 .839.098 1.152.289.313.19.556.467.718.818.162.352.243.773.243 1.257v.294h-3.786v-.53h3.178l-.168.127c0-.508-.116-.906-.341-1.188-.226-.283-.562-.421-1.002-.421-.48 0-.851.167-1.111.496-.261.328-.394.778-.394 1.35v.086c0 .6.15 1.055.446 1.36.301.306.712.462 1.244.462.296 0 .574-.04.828-.127.255-.087.504-.225.741-.421l.296.617a2.386 2.386 0 0 1-.834.472 3.144 3.144 0 0 1-1.036.168v-.006ZM145.53 54.573c-.44 0-.822-.11-1.14-.329a1.526 1.526 0 0 1-.637-.905h.11v1.148h-.898v-7.214h.898v3.414h-.11c.11-.38.324-.675.642-.894.319-.219.695-.323 1.135-.323.44 0 .822.104 1.152.312.33.207.585.501.764.876.18.38.272.836.272 1.372 0 .536-.092.986-.272 1.367-.179.38-.434.674-.77.876-.33.202-.712.306-1.146.306v-.006Zm-.208-.703c.445 0 .804-.156 1.076-.467.273-.312.412-.767.412-1.378 0-.612-.139-1.067-.412-1.378-.272-.312-.631-.468-1.076-.468-.446 0-.811.156-1.077.462-.267.305-.4.767-.4 1.372 0 .605.133 1.067.4 1.384.266.317.625.473 1.077.473ZM156.119 54.573c-.492 0-.921-.104-1.279-.311a2.097 2.097 0 0 1-.84-.894c-.203-.386-.301-.853-.301-1.39 0-.536.104-.98.307-1.355.202-.374.486-.663.845-.864.359-.202.782-.3 1.268-.3.324 0 .631.052.938.161.301.11.55.265.735.467l-.307.629a1.91 1.91 0 0 0-1.308-.542c-.486 0-.869.155-1.141.467-.278.311-.411.76-.411 1.349 0 .588.139 1.055.411 1.372.278.323.655.479 1.141.479.214 0 .44-.04.671-.127.232-.087.446-.22.643-.404l.307.617a1.826 1.826 0 0 1-.753.473c-.307.11-.613.161-.92.161l-.006.012ZM162.111 54.573c-.486 0-.903-.104-1.262-.311a2.145 2.145 0 0 1-.828-.883c-.197-.38-.295-.836-.295-1.354 0-.52.098-.986.295-1.367.197-.38.475-.675.828-.882.353-.208.776-.312 1.262-.312s.909.104 1.262.312c.359.207.631.502.828.882.191.38.29.836.29 1.355s-.099.986-.29 1.367a2.07 2.07 0 0 1-.828.882c-.359.207-.781.311-1.262.311Zm0-.703c.446 0 .805-.156 1.071-.473.266-.317.405-.773.405-1.384 0-.611-.133-1.067-.405-1.372-.266-.306-.625-.462-1.071-.462-.446 0-.81.156-1.077.462-.266.305-.399.767-.399 1.372 0 .605.133 1.067.399 1.384.267.317.626.473 1.077.473ZM166.934 54.48v-3.764a9 9 0 0 0-.076-1.165h.869l.098 1.06h-.116c.134-.362.342-.645.632-.847.289-.202.631-.3 1.036-.3s.741.099 1.001.289c.261.19.44.496.533.905h-.145c.128-.363.348-.657.66-.87a1.915 1.915 0 0 1 1.1-.323c.545 0 .956.16 1.228.472.278.317.411.808.411 1.476v3.068h-.898v-3.022c0-.45-.081-.778-.237-.974-.156-.202-.405-.3-.747-.3-.399 0-.718.139-.944.41-.231.27-.341.64-.341 1.1v2.786h-.897v-3.022c0-.45-.076-.778-.232-.974-.156-.202-.405-.3-.753-.3-.399 0-.712.139-.938.41-.225.27-.341.64-.341 1.1v2.786h-.903ZM176.868 56.597v-5.881c0-.19-.005-.38-.017-.577-.011-.196-.035-.392-.058-.588h.869l.11 1.136h-.11c.098-.38.306-.68.631-.9.318-.219.706-.328 1.152-.328.446 0 .822.103 1.152.305.33.202.585.496.764.877.18.38.272.836.272 1.366 0 .53-.092.986-.272 1.373-.179.386-.434.68-.764.882a2.16 2.16 0 0 1-1.152.305c-.44 0-.817-.11-1.135-.328a1.591 1.591 0 0 1-.643-.888h.11v3.246h-.909Zm2.363-2.733c.451 0 .816-.156 1.082-.473.267-.317.405-.773.405-1.384 0-.611-.133-1.066-.405-1.372-.266-.306-.631-.461-1.082-.461-.452 0-.811.155-1.077.461-.267.306-.4.767-.4 1.372 0 .606.133 1.067.4 1.384.266.317.625.473 1.077.473ZM186.149 54.573c-.486 0-.903-.104-1.262-.311a2.145 2.145 0 0 1-.828-.883c-.197-.38-.295-.836-.295-1.354 0-.52.098-.986.295-1.367.197-.38.475-.675.828-.882.353-.208.776-.312 1.262-.312s.909.104 1.262.312c.359.207.631.502.828.882.191.38.289.836.289 1.355s-.098.986-.289 1.367a2.07 2.07 0 0 1-.828.882c-.359.207-.782.311-1.262.311Zm0-.703c.446 0 .805-.156 1.071-.473.266-.317.405-.773.405-1.384 0-.611-.133-1.067-.405-1.372-.266-.306-.625-.462-1.071-.462-.446 0-.811.156-1.077.462-.266.305-.399.767-.399 1.372 0 .605.133 1.067.399 1.384.266.317.625.473 1.077.473ZM190.971 54.48v-3.764c0-.19-.005-.38-.017-.577-.011-.196-.035-.392-.058-.588h.869l.098 1.06h-.116c.151-.374.382-.656.701-.852a2.034 2.034 0 0 1 1.1-.294c.585 0 1.025.16 1.32.472.295.317.446.808.446 1.476v3.068h-.898v-3.022c0-.45-.087-.778-.266-.974-.18-.202-.452-.3-.828-.3-.446 0-.799.133-1.059.404-.261.265-.388.628-.388 1.09v2.802h-.904ZM200.258 54.573c-.788 0-1.407-.225-1.864-.675-.458-.45-.684-1.072-.684-1.862 0-.525.099-.974.301-1.355.203-.38.475-.68.834-.894.353-.213.77-.317 1.239-.317.469 0 .84.098 1.152.289.313.19.556.467.718.818.162.352.243.773.243 1.257v.294h-3.786v-.53h3.178l-.167.127c0-.508-.116-.906-.342-1.188-.226-.283-.562-.421-1.002-.421-.48 0-.851.167-1.111.496-.261.328-.394.778-.394 1.35v.086c0 .6.151 1.055.446 1.36.301.306.712.462 1.245.462.295 0 .573-.04.827-.127.255-.087.504-.225.742-.421l.295.617a2.386 2.386 0 0 1-.834.472 3.144 3.144 0 0 1-1.036.168v-.006ZM204.612 54.48v-3.764a9 9 0 0 0-.076-1.165h.869l.098 1.06h-.116a1.72 1.72 0 0 1 .701-.852 2.036 2.036 0 0 1 1.1-.294c.585 0 1.025.16 1.32.472.295.317.446.808.446 1.476v3.068h-.898v-3.022c0-.45-.086-.778-.266-.974-.179-.202-.452-.3-.828-.3-.446 0-.799.133-1.059.404-.261.265-.388.628-.388 1.09v2.802h-.903ZM213.498 54.573c-.521 0-.909-.144-1.175-.427-.266-.282-.399-.715-.399-1.291v-2.618h-.967v-.686h.967v-1.32l.897-.248v1.568h1.395v.686h-1.395v2.537c0 .38.069.646.203.807.133.162.33.242.584.242a1.478 1.478 0 0 0 .602-.115v.732a1.72 1.72 0 0 1-.341.093 2.057 2.057 0 0 1-.371.034v.006ZM218.066 54.573c-.399 0-.77-.052-1.117-.156a2.213 2.213 0 0 1-.851-.45l.284-.616c.243.184.509.322.799.415.289.092.59.144.903.144.376 0 .66-.07.851-.208a.643.643 0 0 0 .289-.547.58.58 0 0 0-.185-.444c-.127-.11-.324-.19-.591-.242l-.932-.185c-.422-.098-.735-.254-.949-.473-.214-.219-.319-.501-.319-.847 0-.289.081-.542.238-.767.156-.225.382-.404.671-.53a2.57 2.57 0 0 1 1.031-.191c.359 0 .695.052 1.007.156.313.104.568.26.77.461l-.295.6a2.25 2.25 0 0 0-1.453-.553c-.382 0-.66.074-.845.218a.694.694 0 0 0-.278.571c0 .179.058.323.168.438.11.116.289.202.538.26l.938.184c.44.092.77.242.996.45.225.207.335.484.335.836 0 .306-.081.57-.248.796-.168.224-.4.392-.701.507a2.907 2.907 0 0 1-1.048.179l-.006-.006Z"/><path fill="#EC2E69" d="M32.352 2.831c15.672.594 28.31 13.18 28.906 28.788l-28.906.018V2.83Zm-1.158-1.176V32.79l31.24-.017c0-17.16-14.017-31.118-31.246-31.118h.006Z"/><path fill="#FFCE1F" d="M15.568 32.767c8.627 0 15.62-6.965 15.62-15.556 0-8.592-6.993-15.556-15.62-15.556-8.627 0-15.62 6.964-15.62 15.556 0 8.591 6.993 15.556 15.62 15.556Z"/><path fill="#530ECB" d="M31.194 32.761c0 17.159 14.016 31.112 31.24 31.112v-31.13l-31.24.018Z"/><mask id="b" width="63" height="32" x="0" y="32" maskUnits="userSpaceOnUse" style="mask-type:luminance"><path fill="#fff" d="M62.434 32.767H15.585C6.976 32.796.005 39.749.005 48.329c0 8.58 6.994 15.556 15.62 15.556v-.012h46.809V32.767Z"/></mask><g fill="#8C46FF" mask="url(#b)"><path d="M.726 21.214-54.4 76.115l.614.612L1.34 21.826l-.614-.612ZM4.797 21.214l-55.127 54.9.614.612 55.127-54.9-.614-.612ZM8.862 21.213l-55.127 54.901.614.612L9.476 21.825l-.614-.612ZM12.932 21.213l-55.126 54.9.614.612 55.126-54.9-.614-.612ZM17.003 21.212l-55.127 54.901.614.612 55.127-54.901-.614-.612ZM21.073 21.212l-55.126 54.9.614.612 55.127-54.9-.615-.612ZM25.144 21.211l-55.127 54.901.614.612 55.127-54.901-.614-.612ZM29.21 21.215l-55.126 54.9.614.612 55.127-54.9-.615-.612ZM33.281 21.214l-55.127 54.901.614.612 55.127-54.901-.614-.612ZM37.352 21.213l-55.127 54.902.614.611 55.127-54.901-.614-.611ZM41.422 21.213l-55.127 54.901.614.611 55.127-54.9-.614-.612ZM45.487 21.212-9.64 76.113l.614.612 55.127-54.901-.614-.612ZM49.557 21.212l-55.126 54.9.614.612 55.127-54.9-.614-.612ZM53.628 21.211-1.499 76.112l.614.612 55.127-54.901-.614-.612ZM57.699 21.21 2.572 76.113l.614.611 55.127-54.9-.614-.612ZM61.77 21.21 6.641 76.111l.614.612 55.127-54.901-.614-.612ZM65.84 21.21l-55.127 54.9.614.612 55.127-54.9-.614-.612ZM69.91 21.209 14.783 76.11l.615.612L70.523 21.82l-.614-.612ZM73.98 21.209l-55.126 54.9.614.612L74.595 21.82l-.614-.611ZM78.051 21.208l-55.126 54.9.614.612 55.126-54.9-.614-.612ZM82.116 21.213 26.989 76.114l.614.612L82.73 21.825l-.614-.612ZM86.187 21.213l-55.127 54.9.614.612 55.127-54.9-.614-.612ZM90.253 21.216 35.126 76.117l.614.612 55.127-54.901-.614-.612ZM94.324 21.216l-55.127 54.9.614.612 55.127-54.9-.614-.612ZM98.394 21.215 43.267 76.116l.614.612 55.127-54.901-.614-.612ZM102.465 21.214 47.338 76.115l.614.612 55.127-54.901-.614-.612Z"/></g><path fill="#fff" d="M33.7.577h-3.907v3.891H33.7V.577Z"/><path fill="#EC2E69" d="M33.121 1.153v2.739h-2.75V1.153h2.75ZM34.28 0h-5.065v5.045h5.065V0Z"/><path fill="#fff" d="M33.7 30.236h-3.907v3.892H33.7v-3.892Z"/><path fill="#EC2E69" d="M33.121 30.812v2.739h-2.75v-2.739h2.75Zm1.158-1.153h-5.065v5.045h5.065V29.66Z"/><path fill="#fff" d="M63.696 30.236h-3.908v3.892h3.908v-3.892Z"/><path fill="#EC2E69" d="M63.111 30.812v2.739h-2.75v-2.739h2.75Zm1.158-1.153h-5.066v5.045h5.066V29.66Z"/></g><defs><clipPath id="a"><path fill="#fff" d="M0 0h220v64H0z"/></clipPath></defs></svg>