<svg xmlns="http://www.w3.org/2000/svg" width="110" height="32" fill="none"><g clip-path="url(#a)"><path fill="#0A0A0A" d="M51.523 16.885v-5.028c0-1.764-.555-3.136-1.655-4.076-1.086-.928-2.574-1.401-4.418-1.401-1.198 0-2.234.187-3.077.553-.848.37-1.534.862-2.04 1.465a5.788 5.788 0 0 0-1.106 1.986l-.087.271 3.743 1.254.066-.32c.116-.56.356-1.003.733-1.355.361-.337.938-.507 1.71-.507.773 0 1.36.176 1.702.524.348.355.519.802.519 1.361v.473H44.19c-1.05 0-2 .167-2.822.496-.84.337-1.508.845-1.983 1.513-.478.672-.721 1.508-.721 2.491 0 .983.243 1.825.72 2.514.476.683 1.127 1.21 1.937 1.568.8.35 1.708.528 2.71.528s1.783-.147 2.365-.438c.585-.291 1.025-.637 1.305-1.027a4.87 4.87 0 0 0 .452-.735h.05c.063.52.315.946.755 1.275.486.363 1.103.547 1.838.547h2.582v-3.401h-1.38c-.293 0-.476-.09-.476-.528v-.003Zm-3.907-1.67c-.003.802-.27 1.422-.817 1.9-.553.485-1.282.73-2.168.73-.657 0-1.155-.133-1.482-.398a1.185 1.185 0 0 1-.466-.971c0-.401.142-.695.431-.911.31-.234.759-.35 1.326-.35h3.176ZM68.521 17.865 66.784 6.763h-6.006l-1.734 11.102-1.196-11.102h-4.003l1.992 14.051h6.2l1.746-11.15 1.742 11.15h6.2l1.992-14.05h-4.003L68.52 17.864ZM85.372 14.605l-.052.305c-.136.805-.452 1.462-.941 1.95-.478.475-1.205.717-2.157.717-.64 0-1.221-.138-1.73-.415a2.929 2.929 0 0 1-1.194-1.214c-.292-.542-.442-1.222-.442-2.024v-.27c0-.8.147-1.48.443-2.024.289-.537.691-.943 1.192-1.214a3.612 3.612 0 0 1 1.731-.412c.64 0 1.175.115 1.592.346.42.23.736.533.967.925.235.4.388.856.455 1.36l.04.31 3.908-.831-.05-.274a6.787 6.787 0 0 0-1.18-2.794 6.317 6.317 0 0 0-2.357-1.951c-.963-.47-2.127-.71-3.456-.71-1.329 0-2.59.286-3.69.848a6.443 6.443 0 0 0-2.64 2.474c-.643 1.072-.97 2.384-.97 3.897v.38c0 1.514.327 2.826.97 3.899a6.461 6.461 0 0 0 2.64 2.473c1.1.562 2.341.848 3.69.848 1.35 0 2.492-.24 3.456-.71a6.219 6.219 0 0 0 2.357-1.951 7.78 7.78 0 0 0 1.262-2.722l.07-.282-3.914-.926v-.008Z"/><path fill="#303236" d="M99.683 16.813v4.001l10.334-4.494v-5.091L99.683 6.732v4.004l6.921 2.992v.092l-6.92 2.993ZM94.082 6.763l-1.957 14.092h4.047l1.954-14.092h-4.044Z"/><path fill="#0A0A0A" d="M39.782 27.287a1.06 1.06 0 0 1-.57-.153 1.031 1.031 0 0 1-.385-.441 1.568 1.568 0 0 1-.139-.687c0-.265.046-.492.14-.683.092-.19.22-.337.384-.438.165-.1.353-.153.57-.153.217 0 .411.055.574.165.162.11.269.259.32.45h-.057l.055-.569h.434c-.009.098-.02.196-.026.294-.006.099-.011.194-.011.289v1.882h-.45v-.565h.056a.768.768 0 0 1-.322.444.994.994 0 0 1-.567.165h-.006Zm.105-.352a.664.664 0 0 0 .535-.237c.133-.158.203-.386.203-.692 0-.305-.067-.533-.203-.686a.677.677 0 0 0-.535-.23.687.687 0 0 0-.539.23c-.136.153-.205.384-.205.686 0 .303.066.534.202.692a.676.676 0 0 0 .541.237ZM43.38 27.287a1.06 1.06 0 0 1-.57-.153 1.031 1.031 0 0 1-.385-.441 1.57 1.57 0 0 1-.139-.687c0-.265.047-.492.14-.683.092-.19.22-.337.384-.438.165-.1.353-.153.57-.153.218 0 .406.055.568.162a.778.778 0 0 1 .327.447h-.058v-1.707h.449v3.606h-.443v-.573h.055a.77.77 0 0 1-.322.452 1 1 0 0 1-.573.165l-.003.003Zm.105-.352a.674.674 0 0 0 .538-.237c.136-.158.206-.386.206-.692 0-.305-.07-.533-.206-.686a.687.687 0 0 0-.538-.23.687.687 0 0 0-.539.23c-.136.153-.205.384-.205.686 0 .303.07.534.205.692a.682.682 0 0 0 .539.237ZM47.161 27.287c-.394 0-.703-.113-.932-.338-.229-.225-.342-.536-.342-.931 0-.262.05-.487.15-.678.102-.19.238-.34.418-.446.176-.107.385-.159.62-.159.234 0 .419.05.575.144a.92.92 0 0 1 .36.41c.08.175.12.386.12.628v.147h-1.892V25.8h1.589l-.084.063c0-.253-.058-.452-.17-.593-.114-.142-.282-.211-.502-.211-.24 0-.425.084-.555.248-.13.164-.197.39-.197.674v.044c0 .3.075.527.222.68.151.153.357.23.623.23.148 0 .286-.02.414-.063.127-.043.252-.112.37-.21l.148.308c-.113.101-.249.18-.417.237a1.575 1.575 0 0 1-.518.083v-.003ZM49.335 27.24v-3.606h.448v3.606h-.448ZM51.112 24.236v-.481h.532v.481h-.532Zm.04 3.004v-2.464h.449v2.464h-.448ZM54.01 27.287c-.243 0-.452-.052-.631-.156a1.071 1.071 0 0 1-.414-.441 1.462 1.462 0 0 1-.148-.678c0-.26.05-.493.148-.683.098-.19.237-.337.414-.441.177-.104.388-.156.631-.156s.455.052.631.156c.18.104.316.25.414.441a1.5 1.5 0 0 1 .145.677c0 .26-.05.494-.145.684-.096.19-.234.337-.414.44a1.24 1.24 0 0 1-.631.157Zm0-.352a.664.664 0 0 0 .535-.237c.134-.158.203-.386.203-.692 0-.305-.066-.533-.203-.686a.677.677 0 0 0-.535-.23.683.683 0 0 0-.538.23c-.134.153-.2.384-.2.686 0 .303.066.534.2.692a.666.666 0 0 0 .538.237ZM56.421 27.24v-1.882c0-.095-.003-.19-.008-.288-.006-.099-.018-.197-.03-.294h.435l.05.53h-.059a.86.86 0 0 1 .316-.424c.145-.1.315-.15.518-.15a.83.83 0 0 1 .5.144c.13.095.22.248.267.453h-.072a.858.858 0 0 1 .33-.435.957.957 0 0 1 .55-.162c.272 0 .477.081.613.237.14.158.206.403.206.738v1.533h-.449v-1.51c0-.225-.04-.39-.119-.488-.078-.1-.202-.15-.373-.15-.2 0-.359.07-.472.205-.116.136-.17.32-.17.55v1.393h-.45v-1.51c0-.225-.037-.39-.115-.488-.078-.1-.203-.15-.376-.15-.2 0-.356.07-.47.205-.112.136-.17.32-.17.55v1.393h-.452ZM63.977 27.24l-.927-2.464h.47l.746 2.113h-.127l.767-2.113h.365l.76 2.113h-.12l.752-2.113h.449l-.93 2.464h-.422l-.788-2.147h.218l-.782 2.147h-.431ZM69.306 27.287c-.394 0-.704-.113-.932-.338-.229-.225-.342-.536-.342-.931 0-.262.05-.487.15-.678.102-.19.238-.34.418-.446.176-.107.385-.159.619-.159.234 0 .42.05.576.144a.92.92 0 0 1 .359.41c.081.175.121.386.121.628v.147h-1.893V25.8h1.59l-.084.063c0-.253-.058-.452-.171-.593-.113-.142-.28-.211-.5-.211-.241 0-.427.084-.557.248-.13.164-.197.39-.197.674v.044c0 .3.076.527.223.68.15.153.356.23.623.23.147 0 .286-.02.414-.063.127-.043.252-.112.37-.21l.148.308c-.113.101-.25.18-.417.237a1.574 1.574 0 0 1-.518.083v-.003ZM72.765 27.287a.983.983 0 0 1-.57-.165.766.766 0 0 1-.319-.452h.055v.573h-.448v-3.606h.448v1.706h-.055a.791.791 0 0 1 .322-.446.972.972 0 0 1 .567-.162c.22 0 .411.052.576.156.165.104.293.25.382.438.09.19.136.418.136.686 0 .268-.046.493-.136.683a.985.985 0 0 1-.385.439c-.165.1-.356.152-.573.152v-.003Zm-.104-.352a.68.68 0 0 0 .538-.234c.136-.155.206-.383.206-.689 0-.305-.07-.533-.206-.689a.68.68 0 0 0-.538-.233.683.683 0 0 0-.539.23c-.133.153-.2.384-.2.686 0 .303.067.534.2.692a.666.666 0 0 0 .539.237ZM78.06 27.287c-.247 0-.46-.052-.64-.156a1.048 1.048 0 0 1-.42-.447 1.484 1.484 0 0 1-.15-.695c0-.268.052-.49.153-.677a1.07 1.07 0 0 1 .422-.433c.18-.1.391-.15.635-.15.162 0 .315.026.468.081.151.055.275.133.368.234l-.153.314a.957.957 0 0 0-.655-.271c-.243 0-.434.078-.57.233-.139.156-.205.38-.205.675 0 .294.07.527.205.686.14.162.327.24.57.24a.958.958 0 0 0 .658-.266l.153.309a.912.912 0 0 1-.376.236c-.154.055-.307.08-.46.08l-.004.006ZM81.055 27.287c-.243 0-.451-.052-.63-.156a1.072 1.072 0 0 1-.415-.441 1.462 1.462 0 0 1-.147-.678c0-.26.05-.493.147-.683.099-.19.238-.337.414-.441.177-.104.388-.156.631-.156.244 0 .455.052.632.156.18.104.315.25.413.441.096.19.145.418.145.677 0 .26-.049.494-.145.684-.095.19-.234.337-.413.44a1.24 1.24 0 0 1-.632.157Zm0-.352a.664.664 0 0 0 .536-.237c.133-.158.203-.386.203-.692 0-.305-.067-.533-.203-.686a.677.677 0 0 0-.535-.23.683.683 0 0 0-.539.23c-.133.153-.2.384-.2.686 0 .303.067.534.2.692a.666.666 0 0 0 .538.237ZM83.467 27.24v-1.882a4.854 4.854 0 0 0-.038-.582h.434l.05.53h-.058a.86.86 0 0 1 .315-.424c.145-.1.316-.15.518-.15a.83.83 0 0 1 .501.144c.13.095.22.248.267.453h-.073a.857.857 0 0 1 .33-.435.957.957 0 0 1 .55-.162c.272 0 .478.081.614.237.139.158.205.403.205.738v1.533h-.448v-1.51c0-.225-.04-.39-.119-.488-.078-.1-.203-.15-.373-.15-.2 0-.36.07-.472.205-.116.136-.171.32-.171.55v1.393h-.449v-1.51c0-.225-.037-.39-.115-.488-.079-.1-.203-.15-.377-.15-.2 0-.356.07-.469.205-.113.136-.17.32-.17.55v1.393h-.452ZM88.434 28.298v-2.94c0-.095-.003-.19-.008-.288-.006-.099-.018-.197-.03-.294h.435l.055.567h-.055a.75.75 0 0 1 .315-.45.995.995 0 0 1 .576-.164c.223 0 .412.052.577.153.164.101.292.248.382.438.09.19.136.418.136.684 0 .265-.047.493-.136.686a.99.99 0 0 1-.382.44 1.08 1.08 0 0 1-.577.154.974.974 0 0 1-.567-.165.794.794 0 0 1-.321-.444h.055v1.623h-.455Zm1.181-1.366a.671.671 0 0 0 .542-.236c.133-.16.202-.387.202-.692 0-.306-.066-.534-.202-.687a.685.685 0 0 0-.542-.23.679.679 0 0 0-.538.23c-.133.153-.2.384-.2.687 0 .302.067.533.2.691a.665.665 0 0 0 .538.237ZM93.075 27.287c-.244 0-.452-.052-.632-.156a1.071 1.071 0 0 1-.413-.441 1.461 1.461 0 0 1-.148-.678c0-.26.049-.493.147-.683.099-.19.238-.337.414-.441.177-.104.388-.156.632-.156.243 0 .454.052.63.156.18.104.316.25.415.441a1.5 1.5 0 0 1 .144.677c0 .26-.049.494-.144.684-.096.19-.235.337-.415.44a1.24 1.24 0 0 1-.63.157Zm0-.352a.664.664 0 0 0 .535-.237c.133-.158.203-.386.203-.692 0-.305-.067-.533-.203-.686a.677.677 0 0 0-.535-.23.683.683 0 0 0-.539.23c-.133.153-.2.384-.2.686 0 .303.067.534.2.692a.666.666 0 0 0 .538.237ZM95.486 27.24v-1.882c0-.095-.003-.19-.009-.288-.006-.099-.017-.197-.029-.294h.434l.05.53h-.058a.858.858 0 0 1 .35-.427c.156-.098.341-.147.55-.147.292 0 .512.081.66.237.148.158.223.403.223.738v1.533h-.449v-1.51c0-.225-.043-.39-.133-.488-.09-.1-.226-.15-.414-.15-.223 0-.4.067-.53.202-.13.133-.194.315-.194.545v1.401h-.451ZM100.129 27.287c-.394 0-.704-.113-.932-.338-.229-.225-.342-.536-.342-.931 0-.262.05-.487.15-.678.102-.19.238-.34.418-.446.176-.107.385-.159.619-.159.235 0 .42.05.576.144a.922.922 0 0 1 .359.41c.081.175.122.386.122.628v.147h-1.894V25.8h1.59l-.084.063c0-.253-.058-.452-.171-.593-.113-.142-.281-.211-.501-.211-.24 0-.425.084-.556.248-.13.164-.197.39-.197.674v.044c0 .3.076.527.223.68.151.153.356.23.623.23.147 0 .286-.02.414-.063a1.17 1.17 0 0 0 .37-.21l.148.308c-.113.101-.249.18-.417.237a1.577 1.577 0 0 1-.518.083v-.003ZM102.306 27.24v-1.882a4.693 4.693 0 0 0-.038-.582h.434l.05.53h-.058a.857.857 0 0 1 .35-.427c.156-.098.342-.147.55-.147.292 0 .512.081.66.237.148.158.223.403.223.738v1.533h-.449v-1.51c0-.225-.043-.39-.133-.488-.09-.1-.226-.15-.414-.15-.223 0-.399.067-.53.202-.13.133-.194.315-.194.545v1.401h-.451ZM106.749 27.287c-.26 0-.454-.073-.587-.214-.134-.141-.2-.357-.2-.646V25.12h-.484v-.343h.484v-.66l.448-.125v.785h.698v.343h-.698v1.268c0 .19.035.323.102.404.066.08.165.12.292.12a.742.742 0 0 0 .301-.057v.366a1.024 1.024 0 0 1-.356.063v.004ZM109.033 27.287c-.2 0-.385-.026-.559-.078a1.108 1.108 0 0 1-.425-.225l.142-.309c.121.093.255.162.399.208.145.046.296.072.452.072.188 0 .33-.035.425-.104a.32.32 0 0 0 .145-.274.29.29 0 0 0-.093-.222.637.637 0 0 0-.295-.12l-.466-.093c-.211-.049-.367-.127-.475-.236a.58.58 0 0 1-.159-.424c0-.144.041-.271.119-.384a.777.777 0 0 1 .336-.265c.144-.063.318-.095.515-.095.179 0 .347.026.504.078.156.052.283.13.385.23l-.148.3a1.136 1.136 0 0 0-.727-.276c-.191 0-.33.037-.422.11a.347.347 0 0 0-.139.285c0 .089.029.16.084.219.055.057.145.1.269.13l.469.092c.22.046.385.12.498.225a.537.537 0 0 1 .168.418.645.645 0 0 1-.125.397.76.76 0 0 1-.35.254c-.151.058-.324.09-.524.09l-.003-.003Z"/><path fill="#EC2E69" d="M16.176 1.415c7.836.297 14.155 6.59 14.453 14.395l-14.453.008V1.415Zm-.58-.588v15.568l15.62-.009c0-8.58-7.007-15.559-15.622-15.559h.003Z"/><path fill="#FFCE1F" d="M7.784 16.383c4.313 0 7.81-3.482 7.81-7.778 0-4.295-3.497-7.778-7.81-7.778S-.026 4.31-.026 8.605c0 4.296 3.497 7.778 7.81 7.778Z"/><path fill="#530ECB" d="M15.597 16.38c0 8.58 7.008 15.557 15.62 15.557V16.372l-15.62.009Z"/><mask id="b" width="32" height="16" x="0" y="16" maskUnits="userSpaceOnUse" style="mask-type:luminance"><path fill="#fff" d="M31.217 16.383H7.793c-4.305.015-7.79 3.492-7.79 7.781 0 4.29 3.497 7.778 7.81 7.778v-.005h23.404V16.383Z"/></mask><g fill="#8C46FF" mask="url(#b)"><path d="M.363 10.607-27.2 38.057l.307.306L.67 10.914l-.307-.306ZM2.399 10.607l-27.564 27.45.307.306 27.564-27.45-.307-.306ZM4.431 10.607l-27.563 27.45.307.306 27.563-27.45-.307-.306ZM6.466 10.606l-27.563 27.45.307.307 27.563-27.45-.307-.307ZM8.502 10.606l-27.564 27.45.307.306L8.81 10.912l-.307-.306ZM10.537 10.606l-27.564 27.45.307.306 27.564-27.45-.307-.306ZM12.572 10.605-14.99 38.056l.307.306 27.563-27.45-.307-.307ZM14.605 10.607l-27.563 27.45.307.307 27.563-27.45-.307-.307ZM16.64 10.607l-27.563 27.45.307.306 27.564-27.45-.308-.306ZM18.676 10.607l-27.563 27.45.307.306 27.563-27.45-.307-.306ZM20.711 10.607l-27.563 27.45.307.306 27.563-27.45-.307-.306ZM22.744 10.606-4.82 38.056l.307.306 27.564-27.45-.307-.306ZM24.779 10.606l-27.564 27.45.307.306 27.564-27.45-.307-.306ZM26.814 10.606-.749 38.056l.307.306 27.563-27.45-.307-.306ZM28.85 10.605 1.285 38.055l.307.307 27.563-27.45-.307-.307ZM30.885 10.605 3.32 38.055l.307.306 27.564-27.45-.307-.306ZM32.92 10.605 5.357 38.055l.307.306 27.563-27.45-.307-.306ZM34.955 10.604 7.392 38.056l.307.306 27.563-27.45-.307-.306ZM36.99 10.604 9.427 38.054l.307.306 27.564-27.45-.308-.306ZM39.026 10.604l-27.564 27.45.307.306 27.564-27.45-.307-.306ZM41.058 10.607l-27.563 27.45.307.306 27.563-27.45-.307-.306ZM43.093 10.606 15.53 38.056l.307.307 27.564-27.45-.308-.307ZM45.127 10.608l-27.564 27.45.307.306 27.564-27.45-.307-.306ZM47.162 10.608l-27.563 27.45.306.306 27.564-27.45-.307-.306ZM49.197 10.607 21.634 38.059l.307.306 27.563-27.45-.307-.306ZM51.233 10.607l-27.564 27.45.307.306 27.563-27.45-.306-.306Z"/></g><path fill="#fff" d="M16.85.288h-1.954v1.946h1.954V.288Z"/><path fill="#EC2E69" d="M16.56.577v1.369h-1.374V.576h1.375ZM17.14 0h-2.533v2.523h2.533V0Z"/><path fill="#fff" d="M16.85 15.118h-1.954v1.946h1.954v-1.946Z"/><path fill="#EC2E69" d="M16.56 15.406v1.37h-1.374v-1.37h1.375Zm.58-.576h-2.533v2.522h2.533V14.83Z"/><path fill="#fff" d="M31.848 15.118h-1.954v1.946h1.954v-1.946Z"/><path fill="#EC2E69" d="M31.555 15.406v1.37H30.18v-1.37h1.375Zm.58-.576h-2.533v2.522h2.533V14.83Z"/></g><defs><clipPath id="a"><path fill="#fff" d="M0 0h110v32H0z"/></clipPath></defs></svg>