<?xml version="1.0" standalone="no"?>
<!DOCTYPE svg PUBLIC "-//W3C//DTD SVG 20010904//EN"
 "http://www.w3.org/TR/2001/REC-SVG-20010904/DTD/svg10.dtd">
<svg version="1.0" xmlns="http://www.w3.org/2000/svg"
 width="512.000000pt" height="512.000000pt" viewBox="0 0 512.000000 512.000000"
 preserveAspectRatio="xMidYMid meet">
<metadata>
Created by potrace 1.14, written by Peter Selinger 2001-2017
</metadata>
<g transform="translate(0.000000,512.000000) scale(0.100000,-0.100000)"
fill="#000000" stroke="none">
<path d="M2454 4368 c-263 -143 -1454 -840 -1480 -865 -23 -22 -36 -48 -44
-85 -8 -38 -10 -295 -8 -915 l3 -861 30 -43 c24 -33 62 -61 185 -132 1438
-831 1359 -787 1419 -787 49 0 68 7 156 56 55 31 133 74 172 96 40 22 75 43
77 47 3 4 -12 41 -34 82 -43 83 -75 173 -93 260 l-12 58 -105 -59 c-92 -53
-111 -60 -158 -60 -32 0 -67 7 -90 19 -135 69 -1053 608 -1080 634 -18 17 -37
47 -43 67 -6 23 -9 261 -7 682 l3 646 31 39 c24 30 150 107 575 353 l544 315
65 0 65 0 535 -309 c294 -170 548 -320 564 -335 56 -51 56 -52 56 -530 0 -485
-5 -451 64 -451 56 0 187 -38 274 -80 l82 -39 0 611 c0 664 0 668 -56 722 -17
17 -366 224 -775 460 -696 402 -748 430 -799 434 -48 3 -63 -1 -116 -30z"/>
<path d="M2445 2937 c-118 -40 -207 -117 -258 -225 -30 -62 -32 -75 -32 -173
0 -101 1 -108 38 -181 165 -334 647 -296 762 61 13 39 16 76 13 141 -4 77 -9
98 -41 163 -44 90 -103 146 -197 191 -55 26 -79 31 -155 33 -55 2 -105 -2
-130 -10z"/>
<path d="M3737 1853 c-4 -3 -7 -109 -7 -234 l0 -227 -147 -4 c-165 -4 -204
-16 -258 -80 -61 -72 -76 -177 -37 -254 27 -53 91 -110 139 -123 24 -7 177
-11 406 -11 l367 0 0 263 c0 287 -7 336 -58 431 -33 61 -112 143 -173 178 -70
40 -215 79 -232 61z"/>
</g>
</svg>
