<?xml version="1.0" standalone="no"?>
<!DOCTYPE svg PUBLIC "-//W3C//DTD SVG 20010904//EN"
 "http://www.w3.org/TR/2001/REC-SVG-20010904/DTD/svg10.dtd">
<svg version="1.0" xmlns="http://www.w3.org/2000/svg"
 width="512.000000pt" height="512.000000pt" viewBox="0 0 512.000000 512.000000"
 preserveAspectRatio="xMidYMid meet">
<metadata>
Created by potrace 1.14, written by Peter Selinger 2001-2017
</metadata>
<g transform="translate(0.000000,512.000000) scale(0.100000,-0.100000)"
fill="#000000" stroke="none">
<path d="M0 2560 l0 -2560 2560 0 2560 0 0 2560 0 2560 -2560 0 -2560 0 0
-2560z m2660 1595 c0 -38 3 -45 23 -49 12 -2 65 -11 117 -21 473 -82 914 -418
1141 -866 70 -139 139 -362 155 -501 l6 -58 49 0 49 0 0 -130 0 -130 -45 0
-45 0 0 -755 0 -755 -61 0 c-33 0 -92 5 -131 11 -51 8 -73 8 -81 0 -6 -6 -26
-11 -45 -11 -30 0 -33 2 -22 15 16 19 16 19 -45 33 -48 10 -51 10 -80 -19 -22
-20 -41 -29 -65 -29 l-34 0 34 35 c38 40 37 43 -32 66 l-39 12 -57 -56 c-44
-43 -65 -57 -87 -57 -29 0 -28 1 35 65 35 35 62 66 59 68 -2 3 -24 15 -48 27
l-44 22 -91 -91 c-74 -74 -97 -91 -121 -91 -28 0 -25 5 68 98 53 53 97 100 97
104 0 8 -68 48 -83 48 -7 0 -68 -56 -137 -125 -104 -105 -130 -125 -155 -125
-28 0 -21 9 110 140 l140 141 -35 29 c-19 16 -40 30 -45 30 -6 0 -87 -77 -180
-170 -144 -145 -174 -170 -200 -170 -28 0 -16 14 155 185 l185 185 -38 37 -37
38 -223 -223 c-190 -190 -226 -222 -252 -222 -27 0 -10 20 203 233 127 127
232 236 232 242 0 13 -51 65 -64 65 -6 0 -133 -121 -281 -270 -233 -233 -274
-270 -300 -270 -27 0 -5 25 258 288 158 158 287 292 287 297 0 6 -14 26 -30
45 l-29 35 -333 -332 c-289 -289 -337 -333 -363 -333 -27 0 3 32 318 348 191
191 347 352 347 357 0 6 -12 28 -26 49 l-26 38 -397 -396 c-345 -345 -400
-396 -426 -396 -27 0 10 40 383 413 226 226 412 417 412 424 0 15 -40 83 -48
83 -4 0 -214 -207 -467 -459 -253 -253 -467 -460 -475 -462 -8 -1 -22 -1 -30
0 -8 0 203 219 470 486 l484 484 -18 57 -18 57 -536 -535 c-381 -380 -542
-534 -554 -531 -10 3 -18 7 -18 11 0 4 246 253 546 553 l546 546 -17 58 -17
58 -588 -588 c-517 -517 -590 -586 -610 -580 -20 6 42 72 583 614 l606 606
-11 55 c-5 30 -12 57 -14 60 -3 2 -292 -283 -642 -633 -608 -608 -639 -637
-655 -620 -15 18 15 50 638 673 360 360 655 661 655 667 0 9 -18 13 -57 13
l-58 0 -636 -636 c-565 -565 -637 -634 -649 -619 -12 15 60 90 638 668 l652
652 0 98 0 97 50 0 50 0 -1 253 0 252 -18 -66 c-76 -283 -301 -503 -591 -578
-41 -11 -64 -20 -50 -20 21 -1 -59 -85 -450 -476 -261 -261 -478 -475 -482
-475 -5 0 -8 12 -8 27 0 23 75 103 447 475 l448 448 -70 0 -70 0 -375 -375
c-206 -206 -378 -375 -381 -375 -3 0 -4 15 -1 33 3 27 61 89 348 377 l344 345
-67 13 c-301 57 -551 313 -619 633 -26 119 -15 289 25 408 90 267 288 454 563
531 327 91 696 -49 881 -336 53 -82 72 -123 103 -224 l23 -75 0 243 1 242 -50
0 -50 0 0 130 0 130 135 0 135 0 0 -45z m-1155 -2215 c-537 -537 -560 -559
-569 -534 -8 25 20 55 525 560 502 502 536 534 569 534 34 0 15 -20 -525 -560z
m145 -65 c-344 -344 -628 -625 -632 -625 -4 0 -10 10 -13 21 -6 19 81 110 596
625 569 569 606 604 639 604 34 0 12 -23 -590 -625z m-290 552 c0 -1 -93 -94
-206 -207 l-206 -205 33 65 c36 70 195 244 260 285 58 38 119 69 119 62z"/>
<path d="M2660 3990 l0 -50 -50 0 -50 0 0 -640 0 -640 50 0 50 0 0 -50 0 -50
640 0 640 0 0 49 0 50 48 3 47 3 -3 35 c-11 127 -68 321 -138 469 -75 159
-164 282 -303 421 -184 183 -376 305 -599 380 -97 32 -259 70 -304 70 -27 0
-28 -2 -28 -50z"/>
</g>
</svg>
