<svg width="456" height="325" viewBox="0 0 456 325" fill="none" xmlns="http://www.w3.org/2000/svg">
  <path d="M154 76.9742C154 34.564 119.436 0 76.9742 0V77.0254H153.948L154 76.9742Z" fill="#EC2E69"/>
  <path d="M38.5128 77.0254C59.7827 77.0254 77.0254 59.7827 77.0254 38.5128C77.0254 17.2427 59.7827 0 38.5128 0C17.2427 0 0 17.2427 0 38.5128C0 59.7827 17.2427 77.0254 38.5128 77.0254Z" fill="#FFCE1F"/>
  <path d="M154 76.9742H38.5128C17.3334 77.0768 0.153839 94.2562 0.153839 115.487C0.153839 136.717 17.3846 154 38.6666 154H154V76.9742Z" fill="#8C46FF"/>
  <path d="M76.9742 76.9742C76.9742 119.436 111.487 153.948 153.948 153.948V76.9228H76.9742V76.9742Z" fill="#530ECB"/>
  <path d="M0 246.769L10.2513 207.78H23.0653L33.3166 246.769H25.7396L23.6225 238.191H9.69412L7.57701 246.769H0ZM11.4212 231.396H21.8953L17.1597 212.403H16.1569L11.4212 231.396ZM49.3506 247.549C47.1588 247.549 45.0974 247.01 43.1665 245.933C41.2722 244.819 39.7489 243.204 38.598 241.088C37.4457 238.971 36.8708 236.409 36.8708 233.401V232.51C36.8708 229.502 37.4457 226.94 38.598 224.824C39.7489 222.707 41.2722 221.11 43.1665 220.033C45.0607 218.919 47.1221 218.363 49.3506 218.363C51.022 218.363 52.4149 218.567 53.5291 218.975C54.6801 219.346 55.6083 219.829 56.3148 220.423C57.0201 221.017 57.5582 221.649 57.9305 222.317H58.9334V207.78H65.9532V246.769H59.0448V243.427H58.0419C57.4101 244.467 56.4262 245.413 55.0891 246.268C53.7887 247.122 51.8755 247.549 49.3506 247.549ZM51.4677 241.422C53.6216 241.422 55.4234 240.735 56.872 239.361C58.3205 237.95 59.0448 235.908 59.0448 233.234V232.677C59.0448 230.004 58.3205 227.98 56.872 226.606C55.4601 225.195 53.6583 224.489 51.4677 224.489C49.3127 224.489 47.5121 225.195 46.0636 226.606C44.615 227.98 43.8907 230.004 43.8907 232.677V233.234C43.8907 235.908 44.615 237.95 46.0636 239.361C47.5121 240.735 49.3127 241.422 51.4677 241.422ZM86.3266 247.549C83.5789 247.549 81.1453 246.973 79.0281 245.822C76.949 244.634 75.3143 242.981 74.1254 240.865C72.9744 238.711 72.3982 236.186 72.3982 233.29V232.621C72.3982 229.725 72.9744 227.219 74.1254 225.102C75.2776 222.948 76.8933 221.296 78.9724 220.145C81.0528 218.957 83.4675 218.363 86.2152 218.363C88.9274 218.363 91.2851 218.975 93.2908 220.201C95.2964 221.389 96.8564 223.06 97.9707 225.213C99.085 227.33 99.6421 229.799 99.6421 232.621V235.016H79.5296C79.6043 236.91 80.3095 238.451 81.6467 239.639C82.9838 240.828 84.6185 241.422 86.5495 241.422C88.5184 241.422 89.967 240.995 90.8951 240.141C91.8245 239.287 92.5298 238.34 93.0122 237.3L98.7507 240.308C98.2315 241.273 97.4693 242.332 96.4664 243.483C95.5016 244.597 94.2012 245.562 92.5665 246.379C90.9331 247.159 88.8527 247.549 86.3266 247.549ZM79.5853 229.781H92.5108C92.3626 228.184 91.7131 226.903 90.5608 225.938C89.4466 224.972 87.9803 224.489 86.1595 224.489C84.2652 224.489 82.7609 224.972 81.6467 225.938C80.5324 226.903 79.8461 228.184 79.5853 229.781ZM105.891 246.769V207.78H112.911V246.769H105.891ZM120.689 246.769V219.142H127.709V246.769H120.689ZM124.199 215.912C122.937 215.912 121.859 215.503 120.968 214.686C120.114 213.87 119.686 212.793 119.686 211.456C119.686 210.119 120.114 209.042 120.968 208.225C121.859 207.408 122.937 207 124.199 207C125.499 207 126.577 207.408 127.43 208.225C128.285 209.042 128.712 210.119 128.712 211.456C128.712 212.793 128.285 213.87 127.43 214.686C126.577 215.503 125.499 215.912 124.199 215.912ZM148.637 247.549C145.888 247.549 143.419 246.992 141.227 245.878C139.035 244.764 137.308 243.148 136.046 241.032C134.783 238.915 134.151 236.372 134.151 233.401V232.51C134.151 229.539 134.783 226.996 136.046 224.879C137.308 222.763 139.035 221.147 141.227 220.033C143.419 218.919 145.888 218.363 148.637 218.363C151.386 218.363 153.855 218.919 156.047 220.033C158.239 221.147 159.966 222.763 161.228 224.879C162.491 226.996 163.122 229.539 163.122 232.51V233.401C163.122 236.372 162.491 238.915 161.228 241.032C159.966 243.148 158.239 244.764 156.047 245.878C153.855 246.992 151.386 247.549 148.637 247.549ZM148.637 241.31C150.791 241.31 152.574 240.623 153.985 239.249C155.397 237.838 156.103 235.833 156.103 233.234V232.677C156.103 230.078 155.397 228.091 153.985 226.717C152.612 225.306 150.829 224.601 148.637 224.601C146.483 224.601 144.7 225.306 143.288 226.717C141.877 228.091 141.171 230.078 141.171 232.677V233.234C141.171 235.833 141.877 237.838 143.288 239.249C144.7 240.623 146.483 241.31 148.637 241.31ZM169.602 246.769V219.142H176.51V222.15H177.513C177.997 221.222 178.794 220.423 179.909 219.755C181.023 219.05 182.49 218.697 184.31 218.697C186.279 218.697 187.858 219.087 189.046 219.866C190.235 220.609 191.145 221.593 191.776 222.818H192.778C193.41 221.63 194.302 220.646 195.453 219.866C196.605 219.087 198.238 218.697 200.355 218.697C202.065 218.697 203.606 219.068 204.98 219.811C206.391 220.516 207.506 221.612 208.322 223.097C209.177 224.545 209.604 226.383 209.604 228.611V246.769H202.584V229.112C202.584 227.59 202.194 226.457 201.414 225.715C200.634 224.935 199.539 224.545 198.127 224.545C196.53 224.545 195.286 225.065 194.394 226.105C193.541 227.107 193.113 228.555 193.113 230.449V246.769H186.093V229.112C186.093 227.59 185.703 226.457 184.923 225.715C184.143 224.935 183.048 224.545 181.636 224.545C180.039 224.545 178.794 225.065 177.903 226.105C177.049 227.107 176.622 228.555 176.622 230.449V246.769H169.602ZM5.79418 313.86L0.66856 274.871H7.967L11.7555 308.736H12.7583L17.6611 274.871H30.3638L35.2666 308.736H36.2694L40.0579 274.871H47.3564L42.2307 313.86H29.5281L24.5139 279.216H23.511L18.4968 313.86H5.79418ZM65.2163 314.64C62.4686 314.64 60.035 314.064 57.9178 312.913C55.8387 311.725 54.204 310.073 53.0151 307.956C51.8641 305.803 51.2879 303.278 51.2879 300.381V299.713C51.2879 296.817 51.8641 294.31 53.0151 292.194C54.1673 290.04 55.783 288.387 57.8621 287.236C59.9425 286.048 62.3572 285.454 65.1049 285.454C67.8171 285.454 70.1748 286.067 72.1805 287.292C74.1861 288.48 75.7461 290.151 76.8604 292.305C77.9747 294.421 78.5318 296.891 78.5318 299.713V302.108H58.4193C58.494 304.002 59.1992 305.542 60.5364 306.731C61.8735 307.92 63.5082 308.513 65.4392 308.513C67.4081 308.513 68.8567 308.087 69.7848 307.232C70.7142 306.378 71.4195 305.431 71.9019 304.392L77.6404 307.399C77.1212 308.365 76.359 309.423 75.3561 310.574C74.3913 311.688 73.0909 312.654 71.4562 313.47C69.8228 314.25 67.7424 314.64 65.2163 314.64ZM58.475 296.872H71.4005C71.2523 295.276 70.6028 293.995 69.4505 293.029C68.3363 292.063 66.87 291.581 65.0491 291.581C63.1549 291.581 61.6506 292.063 60.5364 293.029C59.4221 293.995 58.7358 295.276 58.475 296.872ZM101.383 314.64C98.895 314.64 96.9818 314.213 95.6447 313.359C94.3075 312.505 93.3237 311.558 92.6919 310.518H91.689V313.86H84.7806V274.871H91.8004V289.409H92.8033C93.2123 288.74 93.7504 288.109 94.419 287.515C95.1242 286.921 96.0347 286.438 97.1489 286.067C98.2999 285.658 99.7117 285.454 101.383 285.454C103.612 285.454 105.673 286.011 107.567 287.125C109.462 288.202 110.985 289.798 112.136 291.915C113.287 294.032 113.863 296.594 113.863 299.601V300.493C113.863 303.5 113.287 306.062 112.136 308.179C110.985 310.296 109.462 311.911 107.567 313.025C105.673 314.102 103.612 314.64 101.383 314.64ZM99.266 308.513C101.42 308.513 103.222 307.826 104.67 306.452C106.119 305.041 106.843 302.999 106.843 300.326V299.769C106.843 297.095 106.119 295.071 104.67 293.697C103.258 292.286 101.458 291.581 99.266 291.581C97.1122 291.581 95.3104 292.286 93.8618 293.697C92.4133 295.071 91.689 297.095 91.689 299.769V300.326C91.689 302.999 92.4133 305.041 93.8618 306.452C95.3104 307.826 97.1122 308.513 99.266 308.513ZM134.906 314.64C130.077 314.64 126.252 313.303 123.429 310.63C120.606 307.92 119.195 304.057 119.195 299.044V289.687C119.195 284.674 120.606 280.831 123.429 278.157C126.252 275.447 130.077 274.091 134.906 274.091C139.697 274.091 143.392 275.41 145.993 278.046C148.629 280.645 149.949 284.229 149.949 288.796V289.13H142.706V288.573C142.706 286.271 142.055 284.377 140.756 282.892C139.492 281.407 137.542 280.664 134.906 280.664C132.305 280.664 130.263 281.462 128.778 283.059C127.291 284.656 126.549 286.828 126.549 289.576V299.156C126.549 301.866 127.291 304.038 128.778 305.673C130.263 307.269 132.305 308.068 134.906 308.068C137.542 308.068 139.492 307.325 140.756 305.84C142.055 304.317 142.706 302.423 142.706 300.158V299.156H149.949V299.936C149.949 304.503 148.629 308.104 145.993 310.741C143.392 313.34 139.697 314.64 134.906 314.64ZM169.312 314.64C166.563 314.64 164.094 314.083 161.902 312.969C159.71 311.855 157.983 310.24 156.72 308.123C155.458 306.007 154.826 303.464 154.826 300.493V299.601C154.826 296.63 155.458 294.087 156.72 291.971C157.983 289.854 159.71 288.239 161.902 287.125C164.094 286.011 166.563 285.454 169.312 285.454C172.061 285.454 174.53 286.011 176.722 287.125C178.913 288.239 180.64 289.854 181.903 291.971C183.165 294.087 183.797 296.63 183.797 299.601V300.493C183.797 303.464 183.165 306.007 181.903 308.123C180.64 310.24 178.913 311.855 176.722 312.969C174.53 314.083 172.061 314.64 169.312 314.64ZM169.312 308.402C171.465 308.402 173.248 307.714 174.66 306.341C176.072 304.93 176.777 302.924 176.777 300.326V299.769C176.777 297.17 176.072 295.182 174.66 293.809C173.286 292.397 171.503 291.692 169.312 291.692C167.158 291.692 165.375 292.397 163.963 293.809C162.551 295.182 161.846 297.17 161.846 299.769V300.326C161.846 302.924 162.551 304.93 163.963 306.341C165.375 307.714 167.158 308.402 169.312 308.402ZM190.276 313.86V286.234H197.185V289.242H198.188C198.671 288.313 199.469 287.515 200.583 286.846C201.698 286.141 203.165 285.788 204.985 285.788C206.954 285.788 208.533 286.178 209.72 286.958C210.909 287.701 211.82 288.685 212.45 289.91H213.453C214.085 288.722 214.976 287.738 216.127 286.958C217.28 286.178 218.913 285.788 221.03 285.788C222.74 285.788 224.281 286.159 225.654 286.902C227.066 287.608 228.18 288.703 228.997 290.188C229.852 291.637 230.279 293.475 230.279 295.703V313.86H223.259V296.204C223.259 294.681 222.869 293.549 222.089 292.806C221.309 292.026 220.213 291.637 218.802 291.637C217.205 291.637 215.96 292.157 215.069 293.196C214.215 294.199 213.787 295.647 213.787 297.541V313.86H206.768V296.204C206.768 294.681 206.378 293.549 205.598 292.806C204.818 292.026 203.722 291.637 202.31 291.637C200.714 291.637 199.469 292.157 198.578 293.196C197.724 294.199 197.296 295.647 197.296 297.541V313.86H190.276ZM237.829 325V286.234H244.737V289.576H245.74C246.372 288.499 247.356 287.552 248.693 286.735C250.03 285.881 251.943 285.454 254.432 285.454C256.66 285.454 258.721 286.011 260.616 287.125C262.51 288.202 264.033 289.798 265.184 291.915C266.335 294.032 266.911 296.594 266.911 299.601V300.493C266.911 303.5 266.335 306.062 265.184 308.179C264.033 310.296 262.51 311.911 260.616 313.025C258.721 314.102 256.66 314.64 254.432 314.64C252.76 314.64 251.348 314.436 250.197 314.027C249.083 313.656 248.173 313.173 247.467 312.579C246.799 311.948 246.261 311.317 245.852 310.685H244.849V325H237.829ZM252.314 308.513C254.506 308.513 256.307 307.826 257.719 306.452C259.167 305.041 259.891 302.999 259.891 300.326V299.769C259.891 297.095 259.167 295.071 257.719 293.697C256.27 292.286 254.468 291.581 252.314 291.581C250.161 291.581 248.359 292.286 246.91 293.697C245.462 295.071 244.737 297.095 244.737 299.769V300.326C244.737 302.999 245.462 305.041 246.91 306.452C248.359 307.826 250.161 308.513 252.314 308.513ZM286.506 314.64C283.757 314.64 281.287 314.083 279.096 312.969C276.904 311.855 275.177 310.24 273.915 308.123C272.651 306.007 272.021 303.464 272.021 300.493V299.601C272.021 296.63 272.651 294.087 273.915 291.971C275.177 289.854 276.904 288.239 279.096 287.125C281.287 286.011 283.757 285.454 286.506 285.454C289.254 285.454 291.724 286.011 293.916 287.125C296.106 288.239 297.834 289.854 299.097 291.971C300.36 294.087 300.992 296.63 300.992 299.601V300.493C300.992 303.464 300.36 306.007 299.097 308.123C297.834 310.24 296.106 311.855 293.916 312.969C291.724 314.083 289.254 314.64 286.506 314.64ZM286.506 308.402C288.66 308.402 290.443 307.714 291.855 306.341C293.265 304.93 293.972 302.924 293.972 300.326V299.769C293.972 297.17 293.265 295.182 291.855 293.809C290.479 292.397 288.697 291.692 286.506 291.692C284.351 291.692 282.568 292.397 281.158 293.809C279.746 295.182 279.04 297.17 279.04 299.769V300.326C279.04 302.924 279.746 304.93 281.158 306.341C282.568 307.714 284.351 308.402 286.506 308.402ZM307.471 313.86V286.234H314.379V289.854H315.382C315.828 288.889 316.663 287.979 317.889 287.125C319.115 286.234 320.972 285.788 323.46 285.788C325.614 285.788 327.491 286.289 329.087 287.292C330.722 288.258 331.985 289.613 332.876 291.358C333.767 293.066 334.213 295.071 334.213 297.373V313.86H327.193V297.93C327.193 295.851 326.673 294.291 325.633 293.252C324.63 292.213 323.182 291.692 321.288 291.692C319.134 291.692 317.462 292.416 316.273 293.864C315.084 295.276 314.491 297.262 314.491 299.824V313.86H307.471ZM354.393 314.64C351.645 314.64 349.211 314.064 347.094 312.913C345.015 311.725 343.381 310.073 342.192 307.956C341.041 305.803 340.464 303.278 340.464 300.381V299.713C340.464 296.817 341.041 294.31 342.192 292.194C343.344 290.04 344.959 288.387 347.039 287.236C349.119 286.048 351.534 285.454 354.281 285.454C356.994 285.454 359.351 286.067 361.357 287.292C363.363 288.48 364.923 290.151 366.037 292.305C367.151 294.421 367.708 296.891 367.708 299.713V302.108H347.596C347.67 304.002 348.376 305.542 349.713 306.731C351.05 307.92 352.685 308.513 354.616 308.513C356.585 308.513 358.033 308.087 358.961 307.232C359.891 306.378 360.596 305.431 361.078 304.392L366.817 307.399C366.298 308.365 365.535 309.423 364.533 310.574C363.568 311.688 362.267 312.654 360.633 313.47C358.999 314.25 356.919 314.64 354.393 314.64ZM347.651 296.872H360.577C360.429 295.276 359.779 293.995 358.627 293.029C357.513 292.063 356.046 291.581 354.226 291.581C352.331 291.581 350.827 292.063 349.713 293.029C348.599 293.995 347.912 295.276 347.651 296.872ZM373.957 313.86V286.234H380.866V289.854H381.868C382.314 288.889 383.15 287.979 384.375 287.125C385.601 286.234 387.459 285.788 389.947 285.788C392.101 285.788 393.977 286.289 395.574 287.292C397.208 288.258 398.471 289.613 399.362 291.358C400.254 293.066 400.699 295.071 400.699 297.373V313.86H393.68V297.93C393.68 295.851 393.159 294.291 392.12 293.252C391.117 292.213 389.668 291.692 387.774 291.692C385.62 291.692 383.949 292.416 382.76 293.864C381.571 295.276 380.977 297.262 380.977 299.824V313.86H373.957ZM418.112 313.86C416.292 313.86 414.806 313.303 413.655 312.189C412.541 311.039 411.984 309.516 411.984 307.622V292.026H405.075V286.234H411.984V277.656H419.004V286.234H426.581V292.026H419.004V306.397C419.004 307.511 419.523 308.068 420.564 308.068H425.912V313.86H418.112ZM444.412 314.64C440.809 314.64 437.856 313.86 435.553 312.301C433.25 310.741 431.857 308.513 431.375 305.617L437.837 303.946C438.097 305.246 438.525 306.266 439.119 307.009C439.751 307.752 440.512 308.29 441.403 308.625C442.331 308.922 443.334 309.07 444.412 309.07C446.046 309.07 447.253 308.792 448.033 308.235C448.813 307.641 449.203 306.917 449.203 306.062C449.203 305.208 448.832 304.559 448.089 304.113C447.345 303.631 446.158 303.241 444.523 302.943L442.963 302.665C441.032 302.294 439.267 301.793 437.67 301.161C436.074 300.493 434.792 299.582 433.826 298.432C432.86 297.281 432.378 295.795 432.378 293.976C432.378 291.228 433.38 289.13 435.386 287.682C437.392 286.197 440.029 285.454 443.297 285.454C446.381 285.454 448.943 286.141 450.986 287.515C453.028 288.889 454.365 290.69 454.997 292.918L448.479 294.923C448.181 293.511 447.568 292.509 446.64 291.915C445.749 291.321 444.634 291.024 443.297 291.024C441.96 291.024 440.938 291.266 440.233 291.748C439.528 292.194 439.175 292.825 439.175 293.642C439.175 294.533 439.546 295.201 440.289 295.647C441.032 296.056 442.035 296.371 443.297 296.594L444.857 296.872C446.938 297.243 448.813 297.744 450.484 298.376C452.193 298.97 453.53 299.843 454.496 300.994C455.499 302.108 456 303.631 456 305.561C456 308.458 454.941 310.704 452.824 312.301C450.744 313.86 447.941 314.64 444.412 314.64Z" fill="#FF6897"/>
</svg>
